Katahdin-Round-Bold.ufo
<glyph name="exclam" format="1">
  <advance width="337"/>
  <unicode hex="0021"/>
  <outline>
    <contour>
      <point x="194" y="-16"/>
      <point x="241" y="31"/>
      <point x="241" y="89" type="curve" smooth="yes"/>
      <point x="241" y="148"/>
      <point x="194" y="195"/>
      <point x="136" y="195" type="curve" smooth="yes"/>
      <point x="77" y="195"/>
      <point x="30" y="148"/>
      <point x="30" y="89" type="curve" smooth="yes"/>
      <point x="30" y="31"/>
      <point x="77" y="-16"/>
      <point x="136" y="-16" type="curve" smooth="yes"/>
    </contour>
    <contour>
      <point x="228" y="691" type="line" smooth="yes"/>
      <point x="229" y="721"/>
      <point x="214" y="737"/>
      <point x="184" y="737" type="curve" smooth="yes"/>
      <point x="87" y="737" type="line" smooth="yes"/>
      <point x="57" y="737"/>
      <point x="42" y="721"/>
      <point x="43" y="691" type="curve" smooth="yes"/>
      <point x="63" y="301" type="line" smooth="yes"/>
      <point x="64" y="272"/>
      <point x="80" y="257"/>
      <point x="109" y="257" type="curve" smooth="yes"/>
      <point x="163" y="257" type="line" smooth="yes"/>
      <point x="192" y="257"/>
      <point x="208" y="272"/>
      <point x="209" y="301" type="curve" smooth="yes"/>
    </contour>
  </outline>
</glyph>
<glyph name="quotedbl" format="1">
  <advance width="448"/>
  <unicode hex="0022"/>
  <outline>
    <contour>
      <point x="197" y="673"/>
      <point x="197" y="675"/>
      <point x="197" y="682" type="curve" smooth="yes"/>
      <point x="197" y="738"/>
      <point x="164" y="764"/>
      <point x="122" y="764" type="curve" smooth="yes"/>
      <point x="80" y="764"/>
      <point x="46" y="738"/>
      <point x="46" y="682" type="curve" smooth="yes"/>
      <point x="46" y="675"/>
      <point x="47" y="670"/>
      <point x="48" y="665" type="curve"/>
      <point x="84" y="516" type="line" smooth="yes"/>
      <point x="91" y="490"/>
      <point x="99" y="477"/>
      <point x="110" y="477" type="curve" smooth="yes"/>
      <point x="137" y="477"/>
      <point x="154" y="491"/>
      <point x="161" y="521" type="curve" smooth="yes"/>
      <point x="194" y="654"/>
      <point x="195" y="661"/>
      <point x="196" y="665" type="curve"/>
    </contour>
    <contour>
      <point x="379" y="673"/>
      <point x="379" y="675"/>
      <point x="379" y="682" type="curve" smooth="yes"/>
      <point x="379" y="738"/>
      <point x="346" y="764"/>
      <point x="304" y="764" type="curve" smooth="yes"/>
      <point x="262" y="764"/>
      <point x="228" y="738"/>
      <point x="228" y="682" type="curve" smooth="yes"/>
      <point x="228" y="675"/>
      <point x="229" y="670"/>
      <point x="230" y="665" type="curve"/>
      <point x="266" y="516" type="line" smooth="yes"/>
      <point x="273" y="490"/>
      <point x="281" y="477"/>
      <point x="292" y="477" type="curve" smooth="yes"/>
      <point x="319" y="477"/>
      <point x="336" y="491"/>
      <point x="343" y="521" type="curve" smooth="yes"/>
      <point x="376" y="654"/>
      <point x="377" y="661"/>
      <point x="378" y="665" type="curve"/>
    </contour>
  </outline>
</glyph>
<glyph name="numbersign" format="1">
  <advance width="919"/>
  <unicode hex="0023"/>
  <outline>
    <contour>
      <point x="655" y="788" type="line" smooth="yes"/>
      <point x="628" y="788"/>
      <point x="611" y="775"/>
      <point x="606" y="748" type="curve" smooth="yes"/>
      <point x="570" y="564" type="line"/>
      <point x="416" y="564" type="line"/>
      <point x="451" y="739" type="line" smooth="yes"/>
      <point x="457" y="770"/>
      <point x="442" y="788"/>
      <point x="411" y="788" type="curve" smooth="yes"/>
      <point x="360" y="788" type="line" smooth="yes"/>
      <point x="333" y="788"/>
      <point x="316" y="775"/>
      <point x="311" y="748" type="curve" smooth="yes"/>
      <point x="274" y="564" type="line"/>
      <point x="155" y="564" type="line" smooth="yes"/>
      <point x="128" y="564"/>
      <point x="111" y="551"/>
      <point x="106" y="524" type="curve" smooth="yes"/>
      <point x="96" y="473" type="line" smooth="yes"/>
      <point x="90" y="442"/>
      <point x="105" y="424"/>
      <point x="136" y="424" type="curve" smooth="yes"/>
      <point x="246" y="424" type="line"/>
      <point x="218" y="282" type="line"/>
      <point x="99" y="282" type="line" smooth="yes"/>
      <point x="72" y="282"/>
      <point x="55" y="269"/>
      <point x="50" y="242" type="curve" smooth="yes"/>
      <point x="40" y="191" type="line" smooth="yes"/>
      <point x="34" y="160"/>
      <point x="49" y="142"/>
      <point x="80" y="142" type="curve" smooth="yes"/>
      <point x="190" y="142" type="line"/>
      <point x="163" y="2" type="line" smooth="yes"/>
      <point x="157" y="-29"/>
      <point x="172" y="-47"/>
      <point x="203" y="-47" type="curve" smooth="yes"/>
      <point x="254" y="-47" type="line" smooth="yes"/>
      <point x="281" y="-47"/>
      <point x="298" y="-34"/>
      <point x="303" y="-7" type="curve" smooth="yes"/>
      <point x="333" y="142" type="line"/>
      <point x="486" y="142" type="line"/>
      <point x="458" y="2" type="line" smooth="yes"/>
      <point x="452" y="-29"/>
      <point x="467" y="-47"/>
      <point x="498" y="-47" type="curve" smooth="yes"/>
      <point x="549" y="-47" type="line" smooth="yes"/>
      <point x="576" y="-47"/>
      <point x="593" y="-34"/>
      <point x="598" y="-7" type="curve" smooth="yes"/>
      <point x="628" y="142" type="line"/>
      <point x="738" y="142" type="line" smooth="yes"/>
      <point x="765" y="142"/>
      <point x="782" y="155"/>
      <point x="787" y="182" type="curve" smooth="yes"/>
      <point x="797" y="233" type="line" smooth="yes"/>
      <point x="803" y="264"/>
      <point x="788" y="282"/>
      <point x="757" y="282" type="curve" smooth="yes"/>
      <point x="656" y="282" type="line"/>
      <point x="684" y="424" type="line"/>
      <point x="794" y="424" type="line" smooth="yes"/>
      <point x="821" y="424"/>
      <point x="838" y="437"/>
      <point x="843" y="464" type="curve" smooth="yes"/>
      <point x="853" y="515" type="line" smooth="yes"/>
      <point x="859" y="546"/>
      <point x="844" y="564"/>
      <point x="813" y="564" type="curve" smooth="yes"/>
      <point x="712" y="564" type="line"/>
      <point x="746" y="739" type="line" smooth="yes"/>
      <point x="752" y="770"/>
      <point x="737" y="788"/>
      <point x="706" y="788" type="curve" smooth="yes"/>
    </contour>
    <contour>
      <point x="360" y="282" type="line"/>
      <point x="388" y="424" type="line"/>
      <point x="542" y="424" type="line"/>
      <point x="514" y="282" type="line"/>
    </contour>
  </outline>
</glyph>
<glyph name="dollar" format="1">
  <advance width="703"/>
  <unicode hex="0024"/>
  <outline>
    <contour>
      <point x="265" y="463"/>
      <point x="225" y="478"/>
      <point x="211" y="498" type="curve"/>
      <point x="204" y="509"/>
      <point x="203" y="521"/>
      <point x="210" y="534" type="curve" smooth="yes"/>
      <point x="217" y="547"/>
      <point x="240" y="585"/>
      <point x="323" y="585" type="curve" smooth="yes"/>
      <point x="371" y="585"/>
      <point x="409" y="567"/>
      <point x="438" y="546" type="curve" smooth="yes"/>
      <point x="460" y="530"/>
      <point x="480" y="528"/>
      <point x="501" y="546" type="curve" smooth="yes"/>
      <point x="548" y="585" type="line" smooth="yes"/>
      <point x="571" y="605"/>
      <point x="573" y="629"/>
      <point x="550" y="649" type="curve" smooth="yes"/>
      <point x="515" y="677"/>
      <point x="466" y="707"/>
      <point x="402" y="721" type="curve"/>
      <point x="402" y="766" type="line" smooth="yes"/>
      <point x="402" y="795"/>
      <point x="386" y="811"/>
      <point x="357" y="811" type="curve" smooth="yes"/>
      <point x="281" y="811" type="line" smooth="yes"/>
      <point x="252" y="811"/>
      <point x="236" y="795"/>
      <point x="236" y="766" type="curve" smooth="yes"/>
      <point x="236" y="719" type="line"/>
      <point x="149" y="697"/>
      <point x="81" y="644"/>
      <point x="58" y="574" type="curve" smooth="yes"/>
      <point x="45" y="533"/>
      <point x="43" y="470"/>
      <point x="79" y="414" type="curve" smooth="yes"/>
      <point x="119" y="351"/>
      <point x="195" y="314"/>
      <point x="303" y="302" type="curve" smooth="yes"/>
      <point x="399" y="291"/>
      <point x="434" y="268"/>
      <point x="447" y="256" type="curve"/>
      <point x="456" y="247"/>
      <point x="460" y="231"/>
      <point x="458" y="217" type="curve"/>
      <point x="449" y="171"/>
      <point x="380" y="153"/>
      <point x="344" y="153" type="curve" smooth="yes"/>
      <point x="280" y="153"/>
      <point x="224" y="177"/>
      <point x="180" y="218" type="curve" smooth="yes"/>
      <point x="159" y="239"/>
      <point x="139" y="242"/>
      <point x="117" y="224" type="curve" smooth="yes"/>
      <point x="66" y="183" type="line" smooth="yes"/>
      <point x="43" y="164"/>
      <point x="39" y="141"/>
      <point x="60" y="119" type="curve" smooth="yes"/>
      <point x="107" y="70"/>
      <point x="166" y="37"/>
      <point x="236" y="21" type="curve"/>
      <point x="236" y="-26" type="line" smooth="yes"/>
      <point x="236" y="-55"/>
      <point x="252" y="-71"/>
      <point x="281" y="-71" type="curve" smooth="yes"/>
      <point x="357" y="-71" type="line" smooth="yes"/>
      <point x="386" y="-71"/>
      <point x="402" y="-55"/>
      <point x="402" y="-26" type="curve" smooth="yes"/>
      <point x="402" y="14" type="line"/>
      <point x="457" y="21"/>
      <point x="503" y="38"/>
      <point x="538" y="66" type="curve"/>
      <point x="577" y="95"/>
      <point x="602" y="138"/>
      <point x="609" y="184" type="curve" smooth="yes"/>
      <point x="618" y="240"/>
      <point x="603" y="295"/>
      <point x="569" y="341" type="curve" smooth="yes"/>
      <point x="535" y="385"/>
      <point x="464" y="441"/>
      <point x="320" y="457" type="curve" smooth="yes"/>
    </contour>
  </outline>
</glyph>
<glyph name="percent" format="1">
  <advance width="1009"/>
  <unicode hex="0025"/>
  <outline>
    <contour>
      <point x="231" y="54" type="line" smooth="yes"/>
      <point x="214" y="22"/>
      <point x="227" y="0"/>
      <point x="263" y="0" type="curve" smooth="yes"/>
      <point x="332" y="0" type="line" smooth="yes"/>
      <point x="357" y="0"/>
      <point x="373" y="10"/>
      <point x="385" y="32" type="curve" smooth="yes"/>
      <point x="739" y="687" type="line" smooth="yes"/>
      <point x="756" y="719"/>
      <point x="743" y="741"/>
      <point x="707" y="741" type="curve" smooth="yes"/>
      <point x="638" y="741" type="line" smooth="yes"/>
      <point x="613" y="741"/>
      <point x="597" y="731"/>
      <point x="585" y="709" type="curve" smooth="yes"/>
    </contour>
    <contour>
      <point x="409" y="658"/>
      <point x="327" y="741"/>
      <point x="225" y="741" type="curve" smooth="yes"/>
      <point x="123" y="741"/>
      <point x="40" y="658"/>
      <point x="40" y="556" type="curve" smooth="yes"/>
      <point x="40" y="454"/>
      <point x="123" y="371"/>
      <point x="225" y="371" type="curve" smooth="yes"/>
      <point x="327" y="371"/>
      <point x="409" y="454"/>
      <point x="409" y="556" type="curve" smooth="yes"/>
    </contour>
    <contour>
      <point x="165" y="589"/>
      <point x="192" y="615"/>
      <point x="225" y="615" type="curve" smooth="yes"/>
      <point x="257" y="615"/>
      <point x="284" y="589"/>
      <point x="284" y="556" type="curve" smooth="yes"/>
      <point x="284" y="523"/>
      <point x="257" y="497"/>
      <point x="225" y="497" type="curve" smooth="yes"/>
      <point x="192" y="497"/>
      <point x="165" y="523"/>
      <point x="165" y="556" type="curve" smooth="yes"/>
    </contour>
    <contour>
      <point x="647" y="370"/>
      <point x="565" y="288"/>
      <point x="565" y="186" type="curve" smooth="yes"/>
      <point x="565" y="84"/>
      <point x="647" y="1"/>
      <point x="749" y="1" type="curve" smooth="yes"/>
      <point x="851" y="1"/>
      <point x="934" y="84"/>
      <point x="934" y="186" type="curve" smooth="yes"/>
      <point x="934" y="288"/>
      <point x="851" y="370"/>
      <point x="749" y="370" type="curve" smooth="yes"/>
    </contour>
    <contour>
      <point x="716" y="126"/>
      <point x="690" y="153"/>
      <point x="690" y="186" type="curve" smooth="yes"/>
      <point x="690" y="218"/>
      <point x="716" y="245"/>
      <point x="749" y="245" type="curve" smooth="yes"/>
      <point x="782" y="245"/>
      <point x="809" y="218"/>
      <point x="809" y="186" type="curve" smooth="yes"/>
      <point x="809" y="153"/>
      <point x="782" y="126"/>
      <point x="749" y="126" type="curve" smooth="yes"/>
    </contour>
  </outline>
</glyph>
<glyph name="ampersand" format="1">
  <advance width="875"/>
  <unicode hex="0026"/>
  <outline>
    <contour>
      <point x="670" y="320" type="line" smooth="yes"/>
      <point x="650" y="340"/>
      <point x="628" y="340"/>
      <point x="606" y="320" type="curve" smooth="yes"/>
      <point x="579" y="297"/>
      <point x="552" y="277"/>
      <point x="552" y="277" type="curve"/>
      <point x="464" y="377" type="line"/>
      <point x="464" y="377"/>
      <point x="599" y="451"/>
      <point x="599" y="562" type="curve" smooth="yes"/>
      <point x="599" y="655"/>
      <point x="527" y="756"/>
      <point x="379" y="756" type="curve" smooth="yes"/>
      <point x="224" y="756"/>
      <point x="142" y="678"/>
      <point x="142" y="562" type="curve" smooth="yes"/>
      <point x="142" y="504"/>
      <point x="187" y="453"/>
      <point x="230" y="399" type="curve"/>
      <point x="143" y="353"/>
      <point x="44" y="280"/>
      <point x="44" y="187" type="curve" smooth="yes"/>
      <point x="44" y="33"/>
      <point x="202" y="-14"/>
      <point x="312" y="-14" type="curve" smooth="yes"/>
      <point x="426" y="-14"/>
      <point x="482" y="40"/>
      <point x="525" y="76" type="curve"/>
      <point x="574" y="24" type="line" smooth="yes"/>
      <point x="589" y="7"/>
      <point x="606" y="0"/>
      <point x="629" y="0" type="curve" smooth="yes"/>
      <point x="728" y="0" type="line" smooth="yes"/>
      <point x="768" y="0"/>
      <point x="779" y="26"/>
      <point x="753" y="55" type="curve" smooth="yes"/>
      <point x="652" y="166" type="line"/>
      <point x="674" y="185"/>
      <point x="694" y="203"/>
      <point x="709" y="218" type="curve" smooth="yes"/>
      <point x="729" y="238"/>
      <point x="729" y="261"/>
      <point x="708" y="282" type="curve" smooth="yes"/>
    </contour>
    <contour>
      <point x="275" y="139"/>
      <point x="220" y="147"/>
      <point x="220" y="200" type="curve" smooth="yes"/>
      <point x="220" y="255"/>
      <point x="319" y="299"/>
      <point x="319" y="299" type="curve"/>
      <point x="424" y="188" type="line"/>
      <point x="424" y="188"/>
      <point x="376" y="139"/>
      <point x="315" y="139" type="curve" smooth="yes"/>
    </contour>
    <contour>
      <point x="349" y="494"/>
      <point x="305" y="533"/>
      <point x="305" y="566" type="curve" smooth="yes"/>
      <point x="305" y="606"/>
      <point x="324" y="632"/>
      <point x="370" y="636" type="curve" smooth="yes"/>
      <point x="423" y="641"/>
      <point x="442" y="602"/>
      <point x="442" y="562" type="curve" smooth="yes"/>
      <point x="442" y="523"/>
      <point x="401" y="490"/>
      <point x="368" y="472" type="curve"/>
    </contour>
  </outline>
</glyph>
<glyph name="quotesingle" format="1">
  <advance width="249"/>
  <unicode hex="0027"/>
  <outline>
    <contour>
      <point x="187" y="673"/>
      <point x="187" y="675"/>
      <point x="187" y="682" type="curve" smooth="yes"/>
      <point x="187" y="738"/>
      <point x="154" y="764"/>
      <point x="112" y="764" type="curve" smooth="yes"/>
      <point x="70" y="764"/>
      <point x="36" y="738"/>
      <point x="36" y="682" type="curve" smooth="yes"/>
      <point x="36" y="675"/>
      <point x="37" y="670"/>
      <point x="38" y="665" type="curve"/>
      <point x="74" y="516" type="line" smooth="yes"/>
      <point x="81" y="490"/>
      <point x="89" y="477"/>
      <point x="100" y="477" type="curve" smooth="yes"/>
      <point x="127" y="477"/>
      <point x="144" y="491"/>
      <point x="151" y="521" type="curve" smooth="yes"/>
      <point x="184" y="654"/>
      <point x="185" y="661"/>
      <point x="186" y="665" type="curve"/>
    </contour>
  </outline>
</glyph>
<glyph name="parenleft" format="1">
  <advance width="376"/>
  <unicode hex="0028"/>
  <outline>
    <contour>
      <point x="276" y="-81" type="line" smooth="yes"/>
      <point x="305" y="-69"/>
      <point x="311" y="-47"/>
      <point x="294" y="-21" type="curve" smooth="yes"/>
      <point x="253" y="47"/>
      <point x="180" y="191"/>
      <point x="180" y="360" type="curve" smooth="yes"/>
      <point x="180" y="531"/>
      <point x="262" y="686"/>
      <point x="306" y="757" type="curve" smooth="yes"/>
      <point x="323" y="783"/>
      <point x="317" y="805"/>
      <point x="288" y="818" type="curve" smooth="yes"/>
      <point x="252" y="833" type="line" smooth="yes"/>
      <point x="228" y="843"/>
      <point x="208" y="840"/>
      <point x="191" y="820" type="curve" smooth="yes"/>
      <point x="140" y="758"/>
      <point x="30" y="598"/>
      <point x="30" y="360" type="curve" smooth="yes"/>
      <point x="30" y="124"/>
      <point x="130" y="-25"/>
      <point x="179" y="-83" type="curve" smooth="yes"/>
      <point x="196" y="-103"/>
      <point x="216" y="-106"/>
      <point x="240" y="-96" type="curve" smooth="yes"/>
    </contour>
  </outline>
</glyph>
<glyph name="parenright" format="1">
  <advance width="376"/>
  <unicode hex="0029"/>
  <outline>
    <contour>
      <point x="94" y="-96" type="line" smooth="yes"/>
      <point x="118" y="-106"/>
      <point x="138" y="-103"/>
      <point x="155" y="-83" type="curve" smooth="yes"/>
      <point x="204" y="-24"/>
      <point x="304" y="124"/>
      <point x="304" y="360" type="curve" smooth="yes"/>
      <point x="304" y="598"/>
      <point x="194" y="758"/>
      <point x="143" y="820" type="curve" smooth="yes"/>
      <point x="126" y="840"/>
      <point x="106" y="843"/>
      <point x="82" y="833" type="curve" smooth="yes"/>
      <point x="46" y="818" type="line" smooth="yes"/>
      <point x="17" y="805"/>
      <point x="11" y="783"/>
      <point x="28" y="757" type="curve" smooth="yes"/>
      <point x="72" y="686"/>
      <point x="154" y="531"/>
      <point x="154" y="360" type="curve" smooth="yes"/>
      <point x="154" y="191"/>
      <point x="81" y="47"/>
      <point x="40" y="-21" type="curve" smooth="yes"/>
      <point x="23" y="-47"/>
      <point x="29" y="-69"/>
      <point x="58" y="-81" type="curve" smooth="yes"/>
    </contour>
  </outline>
</glyph>
<glyph name="asterisk" format="1">
  <advance width="455"/>
  <unicode hex="002A"/>
  <outline>
    <contour>
      <point x="132" y="411"/>
      <point x="153" y="415"/>
      <point x="171" y="438" type="curve" smooth="yes"/>
      <point x="207" y="486" type="line"/>
      <point x="244" y="438" type="line" smooth="yes"/>
      <point x="261" y="415"/>
      <point x="282" y="411"/>
      <point x="304" y="426" type="curve" smooth="yes"/>
      <point x="328" y="442"/>
      <point x="332" y="464"/>
      <point x="316" y="488" type="curve" smooth="yes"/>
      <point x="281" y="541" type="line"/>
      <point x="343" y="564" type="line" smooth="yes"/>
      <point x="370" y="574"/>
      <point x="380" y="593"/>
      <point x="371" y="621" type="curve" smooth="yes"/>
      <point x="371" y="621" type="line" smooth="yes"/>
      <point x="362" y="648"/>
      <point x="342" y="659"/>
      <point x="314" y="650" type="curve" smooth="yes"/>
      <point x="254" y="632" type="line"/>
      <point x="253" y="693" type="line" smooth="yes"/>
      <point x="253" y="722"/>
      <point x="237" y="738"/>
      <point x="208" y="738" type="curve" smooth="yes"/>
      <point x="207" y="738" type="line" smooth="yes"/>
      <point x="178" y="738"/>
      <point x="162" y="722"/>
      <point x="162" y="693" type="curve" smooth="yes"/>
      <point x="161" y="632" type="line"/>
      <point x="100" y="650" type="line" smooth="yes"/>
      <point x="73" y="659"/>
      <point x="53" y="648"/>
      <point x="44" y="621" type="curve" smooth="yes"/>
      <point x="35" y="594"/>
      <point x="44" y="574"/>
      <point x="72" y="564" type="curve" smooth="yes"/>
      <point x="133" y="541" type="line"/>
      <point x="98" y="488" type="line" smooth="yes"/>
      <point x="82" y="464"/>
      <point x="85" y="443"/>
      <point x="109" y="427" type="curve" smooth="yes"/>
    </contour>
  </outline>
</glyph>
<glyph name="plus" format="1">
  <advance width="578"/>
  <unicode hex="002B"/>
  <outline>
    <contour>
      <point x="275" y="147" type="line" smooth="yes"/>
      <point x="304" y="147"/>
      <point x="320" y="163"/>
      <point x="320" y="192" type="curve" smooth="yes"/>
      <point x="320" y="297" type="line"/>
      <point x="425" y="297" type="line" smooth="yes"/>
      <point x="454" y="297"/>
      <point x="470" y="313"/>
      <point x="470" y="342" type="curve" smooth="yes"/>
      <point x="470" y="392" type="line" smooth="yes"/>
      <point x="470" y="421"/>
      <point x="454" y="437"/>
      <point x="425" y="437" type="curve" smooth="yes"/>
      <point x="320" y="437" type="line"/>
      <point x="320" y="542" type="line" smooth="yes"/>
      <point x="320" y="571"/>
      <point x="304" y="587"/>
      <point x="275" y="587" type="curve" smooth="yes"/>
      <point x="225" y="587" type="line" smooth="yes"/>
      <point x="196" y="587"/>
      <point x="180" y="571"/>
      <point x="180" y="542" type="curve" smooth="yes"/>
      <point x="180" y="437" type="line"/>
      <point x="75" y="437" type="line" smooth="yes"/>
      <point x="46" y="437"/>
      <point x="30" y="421"/>
      <point x="30" y="392" type="curve" smooth="yes"/>
      <point x="30" y="342" type="line" smooth="yes"/>
      <point x="30" y="313"/>
      <point x="46" y="297"/>
      <point x="75" y="297" type="curve" smooth="yes"/>
      <point x="180" y="297" type="line"/>
      <point x="180" y="192" type="line" smooth="yes"/>
      <point x="180" y="163"/>
      <point x="196" y="147"/>
      <point x="225" y="147" type="curve" smooth="yes"/>
    </contour>
  </outline>
</glyph>
<glyph name="comma" format="1">
  <advance width="344"/>
  <unicode hex="002C"/>
  <outline>
    <contour>
      <point x="134" y="0"/>
      <point x="135" y="-1"/>
      <point x="133" y="-6" type="curve" smooth="yes"/>
      <point x="100" y="-82"/>
      <point x="53" y="-80"/>
      <point x="56" y="-106" type="curve" smooth="yes"/>
      <point x="59" y="-131"/>
      <point x="98" y="-117"/>
      <point x="120" y="-106" type="curve" smooth="yes"/>
      <point x="158" y="-86"/>
      <point x="207" y="-23"/>
      <point x="217" y="-8" type="curve" smooth="yes"/>
      <point x="228" y="10"/>
      <point x="245" y="51"/>
      <point x="245" y="88" type="curve" smooth="yes"/>
      <point x="245" y="147"/>
      <point x="197" y="195"/>
      <point x="137" y="195" type="curve" smooth="yes"/>
      <point x="78" y="195"/>
      <point x="30" y="147"/>
      <point x="30" y="88" type="curve" smooth="yes"/>
      <point x="30" y="43"/>
      <point x="73" y="-9"/>
      <point x="134" y="0" type="curve"/>
    </contour>
  </outline>
</glyph>
<glyph name="hyphen" format="1">
  <advance width="589"/>
  <unicode hex="002D"/>
  <outline>
    <contour>
      <point x="77" y="437" type="line" smooth="yes"/>
      <point x="48" y="437"/>
      <point x="32" y="421"/>
      <point x="32" y="392" type="curve" smooth="yes"/>
      <point x="32" y="342" type="line" smooth="yes"/>
      <point x="32" y="313"/>
      <point x="48" y="297"/>
      <point x="77" y="297" type="curve" smooth="yes"/>
      <point x="427" y="297" type="line" smooth="yes"/>
      <point x="456" y="297"/>
      <point x="472" y="313"/>
      <point x="472" y="342" type="curve" smooth="yes"/>
      <point x="472" y="392" type="line" smooth="yes"/>
      <point x="472" y="421"/>
      <point x="456" y="437"/>
      <point x="427" y="437" type="curve" smooth="yes"/>
    </contour>
  </outline>
</glyph>
<glyph name="period" format="1">
  <advance width="334"/>
  <unicode hex="002E"/>
  <outline>
    <contour>
      <point x="214" y="-16"/>
      <point x="261" y="31"/>
      <point x="261" y="89" type="curve" smooth="yes"/>
      <point x="261" y="148"/>
      <point x="214" y="195"/>
      <point x="156" y="195" type="curve" smooth="yes"/>
      <point x="97" y="195"/>
      <point x="50" y="148"/>
      <point x="50" y="89" type="curve" smooth="yes"/>
      <point x="50" y="31"/>
      <point x="97" y="-16"/>
      <point x="156" y="-16" type="curve" smooth="yes"/>
    </contour>
  </outline>
</glyph>
<glyph name="slash" format="1">
  <advance width="490"/>
  <unicode hex="002F"/>
  <outline>
    <contour>
      <point x="332" y="808" type="line" smooth="yes"/>
      <point x="306" y="808"/>
      <point x="289" y="796"/>
      <point x="282" y="770" type="curve" smooth="yes"/>
      <point x="45" y="-23" type="line" smooth="yes"/>
      <point x="36" y="-54"/>
      <point x="50" y="-74"/>
      <point x="83" y="-74" type="curve" smooth="yes"/>
      <point x="157" y="-74" type="line" smooth="yes"/>
      <point x="183" y="-74"/>
      <point x="200" y="-62"/>
      <point x="207" y="-36" type="curve" smooth="yes"/>
      <point x="444" y="757" type="line" smooth="yes"/>
      <point x="453" y="788"/>
      <point x="439" y="808"/>
      <point x="406" y="808" type="curve" smooth="yes"/>
    </contour>
  </outline>
</glyph>
<glyph name="zero" format="1">
  <advance width="815"/>
  <unicode hex="0030"/>
  <outline>
    <contour>
      <point x="175" y="753"/>
      <point x="56" y="565"/>
      <point x="56" y="370" type="curve" smooth="yes"/>
      <point x="56" y="154"/>
      <point x="181" y="-18"/>
      <point x="392" y="-18" type="curve" smooth="yes"/>
      <point x="619" y="-18"/>
      <point x="729" y="171"/>
      <point x="729" y="370" type="curve" smooth="yes"/>
      <point x="729" y="576"/>
      <point x="592" y="759"/>
      <point x="392" y="759" type="curve" smooth="yes"/>
    </contour>
    <contour>
      <point x="271" y="161"/>
      <point x="245" y="279"/>
      <point x="245" y="370" type="curve" smooth="yes"/>
      <point x="245" y="456"/>
      <point x="293" y="580"/>
      <point x="392" y="580" type="curve" smooth="yes"/>
      <point x="495" y="580"/>
      <point x="539" y="447"/>
      <point x="539" y="370" type="curve" smooth="yes"/>
      <point x="539" y="279"/>
      <point x="514" y="161"/>
      <point x="392" y="161" type="curve" smooth="yes"/>
    </contour>
  </outline>
</glyph>
<glyph name="one" format="1">
  <advance width="498"/>
  <unicode hex="0031"/>
  <outline>
    <contour>
      <point x="182" y="513" type="line"/>
      <point x="182" y="45" type="line" smooth="yes"/>
      <point x="182" y="16"/>
      <point x="198" y="0"/>
      <point x="227" y="0" type="curve" smooth="yes"/>
      <point x="326" y="0" type="line" smooth="yes"/>
      <point x="355" y="0"/>
      <point x="371" y="16"/>
      <point x="371" y="45" type="curve" smooth="yes"/>
      <point x="371" y="695" type="line" smooth="yes"/>
      <point x="371" y="724"/>
      <point x="355" y="740"/>
      <point x="326" y="740" type="curve" smooth="yes"/>
      <point x="239" y="740" type="line" smooth="yes"/>
      <point x="215" y="740"/>
      <point x="199" y="732"/>
      <point x="184" y="713" type="curve" smooth="yes"/>
      <point x="72" y="568" type="line" smooth="yes"/>
      <point x="49" y="538"/>
      <point x="61" y="513"/>
      <point x="99" y="513" type="curve" smooth="yes"/>
    </contour>
  </outline>
</glyph>
<glyph name="two" format="1">
  <advance width="686"/>
  <unicode hex="0032"/>
  <outline>
    <contour>
      <point x="542" y="362"/>
      <point x="584" y="408"/>
      <point x="594" y="456" type="curve" smooth="yes"/>
      <point x="604" y="503"/>
      <point x="599" y="552"/>
      <point x="581" y="597" type="curve" smooth="yes"/>
      <point x="540" y="696"/>
      <point x="442" y="761"/>
      <point x="325" y="761" type="curve" smooth="yes"/>
      <point x="247" y="761"/>
      <point x="177" y="734"/>
      <point x="115" y="681" type="curve" smooth="yes"/>
      <point x="89" y="659"/>
      <point x="62" y="622"/>
      <point x="44" y="595" type="curve" smooth="yes"/>
      <point x="28" y="571"/>
      <point x="33" y="549"/>
      <point x="57" y="533" type="curve" smooth="yes"/>
      <point x="139" y="476" type="line" smooth="yes"/>
      <point x="163" y="459"/>
      <point x="184" y="463"/>
      <point x="202" y="487" type="curve" smooth="yes"/>
      <point x="231" y="527"/>
      <point x="272" y="571"/>
      <point x="325" y="571" type="curve" smooth="yes"/>
      <point x="374" y="571"/>
      <point x="402" y="546"/>
      <point x="411" y="524" type="curve" smooth="yes"/>
      <point x="422" y="497"/>
      <point x="405" y="464"/>
      <point x="390" y="449" type="curve" smooth="yes"/>
      <point x="328" y="387"/>
      <point x="167" y="250"/>
      <point x="86" y="181" type="curve" smooth="yes"/>
      <point x="65" y="163"/>
      <point x="41" y="145"/>
      <point x="41" y="94" type="curve"/>
      <point x="41" y="45" type="line" smooth="yes"/>
      <point x="41" y="16"/>
      <point x="57" y="0"/>
      <point x="86" y="0" type="curve" smooth="yes"/>
      <point x="557" y="0" type="line" smooth="yes"/>
      <point x="586" y="0"/>
      <point x="602" y="16"/>
      <point x="602" y="45" type="curve" smooth="yes"/>
      <point x="602" y="135" type="line" smooth="yes"/>
      <point x="602" y="164"/>
      <point x="586" y="180"/>
      <point x="557" y="180" type="curve" smooth="yes"/>
      <point x="332" y="180" type="line"/>
      <point x="392" y="226"/>
      <point x="464" y="285"/>
      <point x="504" y="324" type="curve" smooth="yes"/>
    </contour>
  </outline>
</glyph>
<glyph name="three" format="1">
  <advance width="705"/>
  <unicode hex="0033"/>
  <outline>
    <contour>
      <point x="576" y="395"/>
      <point x="624" y="502"/>
      <point x="596" y="603" type="curve" smooth="yes"/>
      <point x="580" y="659"/>
      <point x="493" y="772"/>
      <point x="318" y="761" type="curve" smooth="yes"/>
      <point x="162" y="750"/>
      <point x="94" y="658"/>
      <point x="56" y="602" type="curve"/>
      <point x="41" y="581"/>
      <point x="52" y="570"/>
      <point x="79" y="554" type="curve"/>
      <point x="159" y="506" type="line" smooth="yes"/>
      <point x="183" y="492"/>
      <point x="203" y="497"/>
      <point x="221" y="520" type="curve" smooth="yes"/>
      <point x="247" y="553"/>
      <point x="280" y="579"/>
      <point x="333" y="582" type="curve" smooth="yes"/>
      <point x="386" y="584"/>
      <point x="426" y="548"/>
      <point x="430" y="515" type="curve" smooth="yes"/>
      <point x="433" y="496"/>
      <point x="427" y="452"/>
      <point x="356" y="439" type="curve" smooth="yes"/>
      <point x="326" y="433"/>
      <point x="310" y="420"/>
      <point x="310" y="392" type="curve" smooth="yes"/>
      <point x="310" y="345" type="line" smooth="yes"/>
      <point x="310" y="317"/>
      <point x="326" y="304"/>
      <point x="357" y="299" type="curve" smooth="yes"/>
      <point x="430" y="287"/>
      <point x="434" y="246"/>
      <point x="432" y="227" type="curve"/>
      <point x="430" y="191"/>
      <point x="386" y="155"/>
      <point x="333" y="158" type="curve" smooth="yes"/>
      <point x="279" y="161"/>
      <point x="245" y="193"/>
      <point x="221" y="224" type="curve" smooth="yes"/>
      <point x="204" y="246"/>
      <point x="184" y="251"/>
      <point x="159" y="236" type="curve" smooth="yes"/>
      <point x="65" y="180" type="line"/>
      <point x="41" y="164"/>
      <point x="59" y="136"/>
      <point x="71" y="117" type="curve" smooth="yes"/>
      <point x="110" y="59"/>
      <point x="178" y="-19"/>
      <point x="333" y="-19" type="curve" smooth="yes"/>
      <point x="503" y="-19"/>
      <point x="574" y="71"/>
      <point x="598" y="150" type="curve" smooth="yes"/>
      <point x="627" y="242"/>
      <point x="575" y="355"/>
      <point x="504" y="371" type="curve"/>
    </contour>
  </outline>
</glyph>
<glyph name="four" format="1">
  <advance width="741"/>
  <unicode hex="0034"/>
  <outline>
    <contour>
      <point x="421" y="740" type="line" smooth="yes"/>
      <point x="397" y="740"/>
      <point x="381" y="732"/>
      <point x="366" y="714" type="curve" smooth="yes"/>
      <point x="50" y="335" type="line" smooth="yes"/>
      <point x="36" y="318"/>
      <point x="30" y="302"/>
      <point x="30" y="279" type="curve" smooth="yes"/>
      <point x="30" y="202" type="line" smooth="yes"/>
      <point x="30" y="173"/>
      <point x="46" y="157"/>
      <point x="75" y="157" type="curve" smooth="yes"/>
      <point x="368" y="157" type="line"/>
      <point x="368" y="45" type="line" smooth="yes"/>
      <point x="368" y="16"/>
      <point x="384" y="0"/>
      <point x="413" y="0" type="curve" smooth="yes"/>
      <point x="497" y="0" type="line" smooth="yes"/>
      <point x="526" y="0"/>
      <point x="542" y="16"/>
      <point x="542" y="45" type="curve" smooth="yes"/>
      <point x="542" y="157" type="line"/>
      <point x="586" y="157" type="line" smooth="yes"/>
      <point x="615" y="157"/>
      <point x="631" y="173"/>
      <point x="631" y="202" type="curve" smooth="yes"/>
      <point x="631" y="266" type="line" smooth="yes"/>
      <point x="631" y="295"/>
      <point x="615" y="311"/>
      <point x="586" y="311" type="curve" smooth="yes"/>
      <point x="542" y="311" type="line"/>
      <point x="542" y="695" type="line" smooth="yes"/>
      <point x="542" y="724"/>
      <point x="526" y="740"/>
      <point x="497" y="740" type="curve" smooth="yes"/>
    </contour>
    <contour>
      <point x="219" y="311" type="line"/>
      <point x="368" y="485" type="line"/>
      <point x="368" y="311" type="line"/>
    </contour>
  </outline>
</glyph>
<glyph name="five" format="1">
  <advance width="719"/>
  <unicode hex="0035"/>
  <outline>
    <contour>
      <point x="264" y="508"/>
      <point x="224" y="466"/>
      <point x="222" y="463" type="curve"/>
      <point x="239" y="575" type="line"/>
      <point x="511" y="575" type="line" smooth="yes"/>
      <point x="540" y="575"/>
      <point x="556" y="591"/>
      <point x="556" y="620" type="curve" smooth="yes"/>
      <point x="556" y="695" type="line" smooth="yes"/>
      <point x="556" y="724"/>
      <point x="540" y="740"/>
      <point x="511" y="740" type="curve" smooth="yes"/>
      <point x="152" y="740" type="line" smooth="yes"/>
      <point x="125" y="740"/>
      <point x="109" y="726"/>
      <point x="104" y="699" type="curve" smooth="yes"/>
      <point x="49" y="387" type="line" smooth="yes"/>
      <point x="44" y="359"/>
      <point x="56" y="341"/>
      <point x="84" y="335" type="curve" smooth="yes"/>
      <point x="157" y="319" type="line" smooth="yes"/>
      <point x="181" y="314"/>
      <point x="197" y="321"/>
      <point x="217" y="336" type="curve" smooth="yes"/>
      <point x="310" y="407"/>
      <point x="421" y="355"/>
      <point x="430" y="287" type="curve" smooth="yes"/>
      <point x="440" y="219"/>
      <point x="416" y="158"/>
      <point x="310" y="160" type="curve" smooth="yes"/>
      <point x="268" y="161"/>
      <point x="238" y="180"/>
      <point x="213" y="207" type="curve" smooth="yes"/>
      <point x="194" y="229"/>
      <point x="175" y="234"/>
      <point x="151" y="218" type="curve" smooth="yes"/>
      <point x="68" y="162" type="line" smooth="yes"/>
      <point x="44" y="145"/>
      <point x="39" y="122"/>
      <point x="58" y="99" type="curve" smooth="yes"/>
      <point x="120" y="28"/>
      <point x="200" y="-14"/>
      <point x="301" y="-19" type="curve"/>
      <point x="318" y="-19" type="line" smooth="yes"/>
      <point x="432" y="-19"/>
      <point x="520" y="27"/>
      <point x="569" y="123" type="curve" smooth="yes"/>
      <point x="615" y="214"/>
      <point x="614" y="334"/>
      <point x="550" y="420" type="curve" smooth="yes"/>
      <point x="510" y="475"/>
      <point x="434" y="513"/>
      <point x="341" y="511" type="curve" smooth="yes"/>
    </contour>
  </outline>
</glyph>
<glyph name="six" format="1">
  <advance width="683"/>
  <unicode hex="0036"/>
  <outline>
    <contour>
      <point x="426" y="687" type="line" smooth="yes"/>
      <point x="444" y="718"/>
      <point x="430" y="741"/>
      <point x="395" y="741" type="curve" smooth="yes"/>
      <point x="300" y="741" type="line" smooth="yes"/>
      <point x="275" y="741"/>
      <point x="259" y="731"/>
      <point x="247" y="709" type="curve" smooth="yes"/>
      <point x="77" y="393" type="line" smooth="yes"/>
      <point x="40" y="326"/>
      <point x="38" y="260"/>
      <point x="41" y="216" type="curve" smooth="yes"/>
      <point x="51" y="107"/>
      <point x="140" y="-19"/>
      <point x="307" y="-19" type="curve" smooth="yes"/>
      <point x="461" y="-19"/>
      <point x="569" y="98"/>
      <point x="569" y="242" type="curve" smooth="yes"/>
      <point x="569" y="457"/>
      <point x="350" y="491"/>
      <point x="303" y="464" type="curve"/>
    </contour>
    <contour>
      <point x="247" y="149"/>
      <point x="218" y="195"/>
      <point x="220" y="245" type="curve" smooth="yes"/>
      <point x="222" y="298"/>
      <point x="260" y="339"/>
      <point x="309" y="339" type="curve" smooth="yes"/>
      <point x="358" y="339"/>
      <point x="399" y="311"/>
      <point x="399" y="253" type="curve" smooth="yes"/>
      <point x="399" y="196"/>
      <point x="376" y="149"/>
      <point x="307" y="149" type="curve" smooth="yes"/>
    </contour>
  </outline>
</glyph>
<glyph name="seven" format="1">
  <advance width="607"/>
  <unicode hex="0037"/>
  <outline>
    <contour>
      <point x="337" y="575" type="line"/>
      <point x="59" y="54" type="line" smooth="yes"/>
      <point x="42" y="22"/>
      <point x="55" y="0"/>
      <point x="91" y="0" type="curve" smooth="yes"/>
      <point x="183" y="0" type="line" smooth="yes"/>
      <point x="208" y="0"/>
      <point x="224" y="10"/>
      <point x="236" y="32" type="curve" smooth="yes"/>
      <point x="519" y="571" type="line" smooth="yes"/>
      <point x="529" y="590"/>
      <point x="533" y="605"/>
      <point x="533" y="627" type="curve" smooth="yes"/>
      <point x="533" y="695" type="line" smooth="yes"/>
      <point x="533" y="724"/>
      <point x="517" y="740"/>
      <point x="488" y="740" type="curve" smooth="yes"/>
      <point x="86" y="740" type="line" smooth="yes"/>
      <point x="57" y="740"/>
      <point x="41" y="724"/>
      <point x="41" y="695" type="curve" smooth="yes"/>
      <point x="41" y="620" type="line" smooth="yes"/>
      <point x="41" y="591"/>
      <point x="57" y="575"/>
      <point x="86" y="575" type="curve" smooth="yes"/>
    </contour>
  </outline>
</glyph>
<glyph name="eight" format="1">
  <advance width="716"/>
  <unicode hex="0038"/>
  <outline>
    <contour>
      <point x="564" y="422"/>
      <point x="584" y="490"/>
      <point x="584" y="541" type="curve" smooth="yes"/>
      <point x="584" y="668"/>
      <point x="472" y="760"/>
      <point x="326" y="760" type="curve" smooth="yes"/>
      <point x="179" y="760"/>
      <point x="67" y="668"/>
      <point x="67" y="541" type="curve" smooth="yes"/>
      <point x="67" y="490"/>
      <point x="82" y="429"/>
      <point x="142" y="392" type="curve"/>
      <point x="68" y="361"/>
      <point x="40" y="279"/>
      <point x="40" y="217" type="curve" smooth="yes"/>
      <point x="40" y="80"/>
      <point x="149" y="-19"/>
      <point x="326" y="-19" type="curve" smooth="yes"/>
      <point x="502" y="-19"/>
      <point x="611" y="80"/>
      <point x="611" y="217" type="curve" smooth="yes"/>
      <point x="611" y="279"/>
      <point x="577" y="359"/>
      <point x="509" y="392" type="curve"/>
    </contour>
    <contour>
      <point x="269" y="146"/>
      <point x="224" y="181"/>
      <point x="224" y="227" type="curve" smooth="yes"/>
      <point x="224" y="274"/>
      <point x="256" y="307"/>
      <point x="326" y="307" type="curve" smooth="yes"/>
      <point x="395" y="307"/>
      <point x="428" y="271"/>
      <point x="428" y="227" type="curve" smooth="yes"/>
      <point x="428" y="184"/>
      <point x="382" y="146"/>
      <point x="326" y="146" type="curve" smooth="yes"/>
    </contour>
    <contour>
      <point x="272" y="459"/>
      <point x="229" y="492"/>
      <point x="229" y="535" type="curve" smooth="yes"/>
      <point x="229" y="580"/>
      <point x="260" y="611"/>
      <point x="326" y="611" type="curve" smooth="yes"/>
      <point x="391" y="611"/>
      <point x="422" y="577"/>
      <point x="422" y="535" type="curve" smooth="yes"/>
      <point x="422" y="495"/>
      <point x="379" y="459"/>
      <point x="326" y="459" type="curve" smooth="yes"/>
    </contour>
  </outline>
</glyph>
<glyph name="nine" format="1">
  <advance width="631"/>
  <unicode hex="0039"/>
  <outline>
    <contour>
      <point x="138" y="759"/>
      <point x="30" y="643"/>
      <point x="30" y="499" type="curve" smooth="yes"/>
      <point x="30" y="284"/>
      <point x="249" y="249"/>
      <point x="296" y="276" type="curve"/>
      <point x="172" y="54" type="line" smooth="yes"/>
      <point x="155" y="23"/>
      <point x="168" y="0"/>
      <point x="204" y="0" type="curve" smooth="yes"/>
      <point x="299" y="0" type="line" smooth="yes"/>
      <point x="324" y="0"/>
      <point x="340" y="10"/>
      <point x="352" y="32" type="curve" smooth="yes"/>
      <point x="522" y="348" type="line" smooth="yes"/>
      <point x="559" y="415"/>
      <point x="561" y="481"/>
      <point x="558" y="525" type="curve" smooth="yes"/>
      <point x="548" y="634"/>
      <point x="459" y="759"/>
      <point x="292" y="759" type="curve" smooth="yes"/>
    </contour>
    <contour>
      <point x="241" y="402"/>
      <point x="200" y="430"/>
      <point x="200" y="487" type="curve" smooth="yes"/>
      <point x="200" y="544"/>
      <point x="223" y="591"/>
      <point x="292" y="591" type="curve" smooth="yes"/>
      <point x="352" y="591"/>
      <point x="381" y="546"/>
      <point x="379" y="495" type="curve" smooth="yes"/>
      <point x="377" y="443"/>
      <point x="339" y="402"/>
      <point x="290" y="402" type="curve" smooth="yes"/>
    </contour>
  </outline>
</glyph>
<glyph name="colon" format="1">
  <advance width="373"/>
  <unicode hex="003A"/>
  <outline>
    <contour>
      <point x="214" y="489"/>
      <point x="261" y="536"/>
      <point x="261" y="594" type="curve" smooth="yes"/>
      <point x="261" y="653"/>
      <point x="214" y="700"/>
      <point x="156" y="700" type="curve" smooth="yes"/>
      <point x="97" y="700"/>
      <point x="50" y="653"/>
      <point x="50" y="594" type="curve" smooth="yes"/>
      <point x="50" y="536"/>
      <point x="97" y="489"/>
      <point x="156" y="489" type="curve" smooth="yes"/>
    </contour>
    <contour>
      <point x="214" y="34"/>
      <point x="261" y="81"/>
      <point x="261" y="139" type="curve" smooth="yes"/>
      <point x="261" y="198"/>
      <point x="214" y="245"/>
      <point x="156" y="245" type="curve" smooth="yes"/>
      <point x="97" y="245"/>
      <point x="50" y="198"/>
      <point x="50" y="139" type="curve" smooth="yes"/>
      <point x="50" y="81"/>
      <point x="97" y="34"/>
      <point x="156" y="34" type="curve" smooth="yes"/>
    </contour>
  </outline>
</glyph>
<glyph name="semicolon" format="1">
  <advance width="373"/>
  <unicode hex="003B"/>
  <outline>
    <contour>
      <point x="214" y="489"/>
      <point x="261" y="536"/>
      <point x="261" y="594" type="curve" smooth="yes"/>
      <point x="261" y="653"/>
      <point x="214" y="700"/>
      <point x="156" y="700" type="curve" smooth="yes"/>
      <point x="97" y="700"/>
      <point x="50" y="653"/>
      <point x="50" y="594" type="curve" smooth="yes"/>
      <point x="50" y="536"/>
      <point x="97" y="489"/>
      <point x="156" y="489" type="curve" smooth="yes"/>
    </contour>
    <contour>
      <point x="154" y="50"/>
      <point x="155" y="49"/>
      <point x="153" y="44" type="curve" smooth="yes"/>
      <point x="120" y="-32"/>
      <point x="73" y="-30"/>
      <point x="76" y="-56" type="curve" smooth="yes"/>
      <point x="79" y="-81"/>
      <point x="118" y="-67"/>
      <point x="140" y="-56" type="curve" smooth="yes"/>
      <point x="178" y="-36"/>
      <point x="227" y="27"/>
      <point x="237" y="42" type="curve" smooth="yes"/>
      <point x="248" y="60"/>
      <point x="265" y="101"/>
      <point x="265" y="138" type="curve" smooth="yes"/>
      <point x="265" y="197"/>
      <point x="217" y="245"/>
      <point x="157" y="245" type="curve" smooth="yes"/>
      <point x="98" y="245"/>
      <point x="50" y="197"/>
      <point x="50" y="138" type="curve" smooth="yes"/>
      <point x="50" y="93"/>
      <point x="93" y="41"/>
      <point x="154" y="50" type="curve"/>
    </contour>
  </outline>
</glyph>
<glyph name="less" format="1">
  <advance width="509"/>
  <unicode hex="003C"/>
  <outline>
    <contour>
      <point x="411" y="190" type="line" smooth="yes"/>
      <point x="411" y="215"/>
      <point x="401" y="231"/>
      <point x="379" y="243" type="curve" smooth="yes"/>
      <point x="157" y="356" type="line"/>
      <point x="379" y="469" type="line" smooth="yes"/>
      <point x="401" y="481"/>
      <point x="411" y="497"/>
      <point x="411" y="522" type="curve" smooth="yes"/>
      <point x="411" y="581" type="line" smooth="yes"/>
      <point x="411" y="616"/>
      <point x="389" y="629"/>
      <point x="358" y="614" type="curve" smooth="yes"/>
      <point x="75" y="473" type="line" smooth="yes"/>
      <point x="52" y="462"/>
      <point x="42" y="446"/>
      <point x="42" y="420" type="curve" smooth="yes"/>
      <point x="42" y="292" type="line" smooth="yes"/>
      <point x="42" y="266"/>
      <point x="52" y="250"/>
      <point x="75" y="239" type="curve" smooth="yes"/>
      <point x="358" y="98" type="line" smooth="yes"/>
      <point x="389" y="83"/>
      <point x="411" y="96"/>
      <point x="411" y="131" type="curve" smooth="yes"/>
    </contour>
  </outline>
</glyph>
<glyph name="equal" format="1">
  <advance width="530"/>
  <unicode hex="003D"/>
  <outline>
    <contour>
      <point x="75" y="551" type="line" smooth="yes"/>
      <point x="46" y="551"/>
      <point x="30" y="535"/>
      <point x="30" y="506" type="curve" smooth="yes"/>
      <point x="30" y="457" type="line" smooth="yes"/>
      <point x="30" y="428"/>
      <point x="46" y="412"/>
      <point x="75" y="412" type="curve" smooth="yes"/>
      <point x="377" y="412" type="line" smooth="yes"/>
      <point x="406" y="412"/>
      <point x="422" y="428"/>
      <point x="422" y="457" type="curve" smooth="yes"/>
      <point x="422" y="506" type="line" smooth="yes"/>
      <point x="422" y="535"/>
      <point x="406" y="551"/>
      <point x="377" y="551" type="curve" smooth="yes"/>
    </contour>
    <contour>
      <point x="75" y="321" type="line" smooth="yes"/>
      <point x="46" y="321"/>
      <point x="30" y="305"/>
      <point x="30" y="276" type="curve" smooth="yes"/>
      <point x="30" y="226" type="line" smooth="yes"/>
      <point x="30" y="197"/>
      <point x="46" y="181"/>
      <point x="75" y="181" type="curve" smooth="yes"/>
      <point x="377" y="181" type="line" smooth="yes"/>
      <point x="406" y="181"/>
      <point x="422" y="197"/>
      <point x="422" y="226" type="curve" smooth="yes"/>
      <point x="422" y="276" type="line" smooth="yes"/>
      <point x="422" y="305"/>
      <point x="406" y="321"/>
      <point x="377" y="321" type="curve" smooth="yes"/>
    </contour>
  </outline>
</glyph>
<glyph name="greater" format="1">
  <advance width="509"/>
  <unicode hex="003E"/>
  <outline>
    <contour>
      <point x="42" y="131" type="line" smooth="yes"/>
      <point x="42" y="96"/>
      <point x="64" y="83"/>
      <point x="95" y="98" type="curve" smooth="yes"/>
      <point x="378" y="239" type="line" smooth="yes"/>
      <point x="401" y="250"/>
      <point x="411" y="266"/>
      <point x="411" y="292" type="curve" smooth="yes"/>
      <point x="411" y="420" type="line" smooth="yes"/>
      <point x="411" y="446"/>
      <point x="401" y="462"/>
      <point x="378" y="473" type="curve" smooth="yes"/>
      <point x="95" y="614" type="line" smooth="yes"/>
      <point x="64" y="629"/>
      <point x="42" y="616"/>
      <point x="42" y="581" type="curve" smooth="yes"/>
      <point x="42" y="522" type="line" smooth="yes"/>
      <point x="42" y="497"/>
      <point x="52" y="481"/>
      <point x="74" y="469" type="curve" smooth="yes"/>
      <point x="296" y="356" type="line"/>
      <point x="74" y="243" type="line" smooth="yes"/>
      <point x="52" y="231"/>
      <point x="42" y="215"/>
      <point x="42" y="190" type="curve" smooth="yes"/>
    </contour>
  </outline>
</glyph>
<glyph name="question" format="1">
  <advance width="589"/>
  <unicode hex="003F"/>
  <outline>
    <contour>
      <point x="382" y="148"/>
      <point x="335" y="195"/>
      <point x="276" y="195" type="curve" smooth="yes"/>
      <point x="218" y="195"/>
      <point x="171" y="148"/>
      <point x="171" y="89" type="curve" smooth="yes"/>
      <point x="171" y="31"/>
      <point x="218" y="-16"/>
      <point x="276" y="-16" type="curve" smooth="yes"/>
      <point x="335" y="-16"/>
      <point x="382" y="31"/>
      <point x="382" y="89" type="curve" smooth="yes"/>
    </contour>
    <contour>
      <point x="339" y="599"/>
      <point x="360" y="571"/>
      <point x="365" y="551" type="curve" smooth="yes"/>
      <point x="374" y="514"/>
      <point x="318" y="474"/>
      <point x="303" y="461" type="curve" smooth="yes"/>
      <point x="231" y="402"/>
      <point x="188" y="345"/>
      <point x="188" y="292" type="curve" smooth="yes"/>
      <point x="188" y="264"/>
      <point x="204" y="257"/>
      <point x="233" y="257" type="curve" smooth="yes"/>
      <point x="257" y="257"/>
      <point x="283" y="257"/>
      <point x="308" y="257" type="curve" smooth="yes"/>
      <point x="337" y="257"/>
      <point x="342" y="276"/>
      <point x="353" y="297" type="curve" smooth="yes"/>
      <point x="367" y="324"/>
      <point x="396" y="351"/>
      <point x="427" y="374" type="curve" smooth="yes"/>
      <point x="466" y="403"/>
      <point x="553" y="480"/>
      <point x="520" y="604" type="curve" smooth="yes"/>
      <point x="494" y="700"/>
      <point x="399" y="756"/>
      <point x="296" y="756" type="curve" smooth="yes"/>
      <point x="171" y="756"/>
      <point x="90" y="664"/>
      <point x="54" y="608" type="curve" smooth="yes"/>
      <point x="37" y="583"/>
      <point x="45" y="561"/>
      <point x="72" y="548" type="curve" smooth="yes"/>
      <point x="124" y="523" type="line" smooth="yes"/>
      <point x="149" y="511"/>
      <point x="168" y="517"/>
      <point x="185" y="538" type="curve" smooth="yes"/>
      <point x="213" y="570"/>
      <point x="251" y="599"/>
      <point x="296" y="599" type="curve" smooth="yes"/>
    </contour>
  </outline>
</glyph>
<glyph name="at" format="1">
  <advance width="902"/>
  <unicode hex="0040"/>
  <outline>
    <contour>
      <point x="561" y="-17"/>
      <point x="638" y="25"/>
      <point x="680" y="60" type="curve" smooth="yes"/>
      <point x="698" y="75"/>
      <point x="706" y="88"/>
      <point x="706" y="100" type="curve" smooth="yes"/>
      <point x="706" y="112"/>
      <point x="698" y="122"/>
      <point x="683" y="132" type="curve" smooth="yes"/>
      <point x="650" y="154" type="line" smooth="yes"/>
      <point x="640" y="161"/>
      <point x="630" y="164"/>
      <point x="621" y="164" type="curve" smooth="yes"/>
      <point x="610" y="164"/>
      <point x="599" y="159"/>
      <point x="587" y="151" type="curve" smooth="yes"/>
      <point x="560" y="134"/>
      <point x="513" y="114"/>
      <point x="444" y="114" type="curve" smooth="yes"/>
      <point x="291" y="114"/>
      <point x="164" y="227"/>
      <point x="164" y="377" type="curve" smooth="yes"/>
      <point x="164" y="527"/>
      <point x="288" y="650"/>
      <point x="444" y="650" type="curve" smooth="yes"/>
      <point x="605" y="650"/>
      <point x="722" y="548"/>
      <point x="722" y="404" type="curve" smooth="yes"/>
      <point x="722" y="336"/>
      <point x="719" y="323"/>
      <point x="679" y="323" type="curve"/>
      <point x="628" y="331"/>
      <point x="642" y="404"/>
      <point x="610" y="468" type="curve" smooth="yes"/>
      <point x="569" y="550"/>
      <point x="498" y="572"/>
      <point x="441" y="572" type="curve" smooth="yes"/>
      <point x="382" y="572"/>
      <point x="318" y="544"/>
      <point x="278" y="474" type="curve" smooth="yes"/>
      <point x="259" y="441"/>
      <point x="250" y="407"/>
      <point x="250" y="375" type="curve" smooth="yes"/>
      <point x="250" y="310"/>
      <point x="285" y="252"/>
      <point x="346" y="219" type="curve" smooth="yes"/>
      <point x="376" y="203"/>
      <point x="405" y="196"/>
      <point x="431" y="196" type="curve" smooth="yes"/>
      <point x="520" y="196"/>
      <point x="582" y="270"/>
      <point x="582" y="300" type="curve"/>
      <point x="582" y="300"/>
      <point x="593" y="243"/>
      <point x="650" y="223" type="curve" smooth="yes"/>
      <point x="664" y="218"/>
      <point x="680" y="215"/>
      <point x="696" y="215" type="curve" smooth="yes"/>
      <point x="765" y="215"/>
      <point x="837" y="270"/>
      <point x="837" y="404" type="curve" smooth="yes"/>
      <point x="837" y="621"/>
      <point x="660" y="770"/>
      <point x="444" y="770" type="curve" smooth="yes"/>
      <point x="220" y="770"/>
      <point x="30" y="611"/>
      <point x="30" y="377" type="curve" smooth="yes"/>
      <point x="30" y="143"/>
      <point x="220" y="-17"/>
      <point x="444" y="-17" type="curve" smooth="yes"/>
    </contour>
    <contour>
      <point x="396" y="325"/>
      <point x="383" y="356"/>
      <point x="383" y="387" type="curve" smooth="yes"/>
      <point x="383" y="409"/>
      <point x="398" y="445"/>
      <point x="445" y="445" type="curve" smooth="yes"/>
      <point x="484" y="445"/>
      <point x="498" y="419"/>
      <point x="498" y="387" type="curve" smooth="yes"/>
      <point x="498" y="356"/>
      <point x="479" y="325"/>
      <point x="437" y="325" type="curve" smooth="yes"/>
    </contour>
  </outline>
</glyph>
<glyph name="C" format="1">
  <advance width="815"/>
  <unicode hex="0043"/>
  <outline>
    <contour>
      <point x="524" y="-19"/>
      <point x="619" y="19"/>
      <point x="691" y="86" type="curve" smooth="yes"/>
      <point x="713" y="107"/>
      <point x="710" y="131"/>
      <point x="688" y="150" type="curve" smooth="yes"/>
      <point x="611" y="215" type="line" smooth="yes"/>
      <point x="589" y="233"/>
      <point x="570" y="230"/>
      <point x="547" y="213" type="curve" smooth="yes"/>
      <point x="513" y="186"/>
      <point x="470" y="171"/>
      <point x="425" y="171" type="curve" smooth="yes"/>
      <point x="315" y="171"/>
      <point x="225" y="260"/>
      <point x="225" y="370" type="curve" smooth="yes"/>
      <point x="225" y="480"/>
      <point x="315" y="570"/>
      <point x="425" y="570" type="curve" smooth="yes"/>
      <point x="472" y="570"/>
      <point x="516" y="554"/>
      <point x="551" y="525" type="curve" smooth="yes"/>
      <point x="573" y="507"/>
      <point x="592" y="504"/>
      <point x="614" y="522" type="curve" smooth="yes"/>
      <point x="693" y="584" type="line" smooth="yes"/>
      <point x="717" y="603"/>
      <point x="720" y="626"/>
      <point x="699" y="647" type="curve" smooth="yes"/>
      <point x="626" y="719"/>
      <point x="528" y="759"/>
      <point x="425" y="759" type="curve" smooth="yes"/>
      <point x="211" y="759"/>
      <point x="36" y="585"/>
      <point x="36" y="370" type="curve" smooth="yes"/>
      <point x="36" y="156"/>
      <point x="211" y="-19"/>
      <point x="425" y="-19" type="curve" smooth="yes"/>
    </contour>
  </outline>
</glyph>
<glyph name="D" format="1">
  <advance width="789"/>
  <unicode hex="0044"/>
  <outline>
    <contour>
      <point x="513" y="0"/>
      <point x="677" y="169"/>
      <point x="677" y="370" type="curve" smooth="yes"/>
      <point x="677" y="464"/>
      <point x="640" y="557"/>
      <point x="575" y="627" type="curve" smooth="yes"/>
      <point x="507" y="700"/>
      <point x="417" y="740"/>
      <point x="321" y="740" type="curve" smooth="yes"/>
      <point x="85" y="740" type="line" smooth="yes"/>
      <point x="56" y="740"/>
      <point x="40" y="724"/>
      <point x="40" y="695" type="curve" smooth="yes"/>
      <point x="40" y="45" type="line" smooth="yes"/>
      <point x="40" y="16"/>
      <point x="56" y="0"/>
      <point x="85" y="0" type="curve" smooth="yes"/>
      <point x="320" y="0" type="line" smooth="yes"/>
    </contour>
    <contour>
      <point x="321" y="551" type="line" smooth="yes"/>
      <point x="410" y="551"/>
      <point x="487" y="466"/>
      <point x="487" y="370" type="curve" smooth="yes"/>
      <point x="487" y="274"/>
      <point x="409" y="189"/>
      <point x="320" y="189" type="curve" smooth="yes"/>
      <point x="229" y="189" type="line"/>
      <point x="229" y="551" type="line"/>
    </contour>
  </outline>
</glyph>
<glyph name="E" format="1">
  <advance width="693"/>
  <unicode hex="0045"/>
  <outline>
    <contour>
      <point x="559" y="144" type="line" smooth="yes"/>
      <point x="559" y="173"/>
      <point x="543" y="189"/>
      <point x="514" y="189" type="curve" smooth="yes"/>
      <point x="229" y="189" type="line"/>
      <point x="229" y="283" type="line"/>
      <point x="439" y="283" type="line" smooth="yes"/>
      <point x="468" y="283"/>
      <point x="484" y="299"/>
      <point x="484" y="328" type="curve" smooth="yes"/>
      <point x="484" y="413" type="line" smooth="yes"/>
      <point x="484" y="442"/>
      <point x="468" y="458"/>
      <point x="439" y="458" type="curve" smooth="yes"/>
      <point x="229" y="458" type="line"/>
      <point x="229" y="551" type="line"/>
      <point x="514" y="551" type="line" smooth="yes"/>
      <point x="543" y="551"/>
      <point x="559" y="567"/>
      <point x="559" y="596" type="curve" smooth="yes"/>
      <point x="559" y="695" type="line" smooth="yes"/>
      <point x="559" y="724"/>
      <point x="543" y="740"/>
      <point x="514" y="740" type="curve" smooth="yes"/>
      <point x="85" y="740" type="line" smooth="yes"/>
      <point x="56" y="740"/>
      <point x="40" y="724"/>
      <point x="40" y="695" type="curve" smooth="yes"/>
      <point x="40" y="45" type="line" smooth="yes"/>
      <point x="40" y="16"/>
      <point x="56" y="0"/>
      <point x="85" y="0" type="curve" smooth="yes"/>
      <point x="514" y="0" type="line" smooth="yes"/>
      <point x="543" y="0"/>
      <point x="559" y="16"/>
      <point x="559" y="45" type="curve" smooth="yes"/>
    </contour>
  </outline>
</glyph>
<glyph name="G" format="1">
  <advance width="883"/>
  <unicode hex="0047"/>
  <outline>
    <contour>
      <point x="579" y="-17"/>
      <point x="686" y="46"/>
      <point x="749" y="143" type="curve" smooth="yes"/>
      <point x="758" y="157"/>
      <point x="761" y="171"/>
      <point x="761" y="193" type="curve" smooth="yes"/>
      <point x="761" y="374" type="line" smooth="yes"/>
      <point x="761" y="403"/>
      <point x="745" y="419"/>
      <point x="716" y="419" type="curve" smooth="yes"/>
      <point x="449" y="419" type="line" smooth="yes"/>
      <point x="420" y="419"/>
      <point x="404" y="403"/>
      <point x="404" y="374" type="curve" smooth="yes"/>
      <point x="404" y="312" type="line" smooth="yes"/>
      <point x="404" y="283"/>
      <point x="420" y="267"/>
      <point x="449" y="267" type="curve" smooth="yes"/>
      <point x="572" y="267" type="line"/>
      <point x="572" y="219" type="line"/>
      <point x="557" y="201"/>
      <point x="513" y="164"/>
      <point x="428" y="164" type="curve" smooth="yes"/>
      <point x="318" y="164"/>
      <point x="229" y="261"/>
      <point x="229" y="370" type="curve" smooth="yes"/>
      <point x="229" y="480"/>
      <point x="318" y="569"/>
      <point x="428" y="569" type="curve" smooth="yes"/>
      <point x="474" y="569"/>
      <point x="518" y="553"/>
      <point x="553" y="524" type="curve" smooth="yes"/>
      <point x="575" y="506"/>
      <point x="594" y="503"/>
      <point x="616" y="521" type="curve" smooth="yes"/>
      <point x="695" y="583" type="line" smooth="yes"/>
      <point x="718" y="602"/>
      <point x="721" y="625"/>
      <point x="700" y="647" type="curve" smooth="yes"/>
      <point x="628" y="718"/>
      <point x="531" y="758"/>
      <point x="428" y="758" type="curve" smooth="yes"/>
      <point x="214" y="758"/>
      <point x="40" y="584"/>
      <point x="40" y="370" type="curve" smooth="yes"/>
      <point x="40" y="157"/>
      <point x="214" y="-17"/>
      <point x="428" y="-17" type="curve" smooth="yes"/>
    </contour>
  </outline>
</glyph>
<glyph name="H" format="1">
  <advance width="744"/>
  <unicode hex="0048"/>
  <outline>
    <contour>
      <point x="623" y="695" type="line" smooth="yes"/>
      <point x="623" y="724"/>
      <point x="607" y="740"/>
      <point x="578" y="740" type="curve" smooth="yes"/>
      <point x="479" y="740" type="line" smooth="yes"/>
      <point x="450" y="740"/>
      <point x="434" y="724"/>
      <point x="434" y="695" type="curve" smooth="yes"/>
      <point x="434" y="465" type="line"/>
      <point x="229" y="465" type="line"/>
      <point x="229" y="695" type="line" smooth="yes"/>
      <point x="229" y="724"/>
      <point x="213" y="740"/>
      <point x="184" y="740" type="curve" smooth="yes"/>
      <point x="85" y="740" type="line" smooth="yes"/>
      <point x="56" y="740"/>
      <point x="40" y="724"/>
      <point x="40" y="695" type="curve" smooth="yes"/>
      <point x="40" y="45" type="line" smooth="yes"/>
      <point x="40" y="16"/>
      <point x="56" y="0"/>
      <point x="85" y="0" type="curve" smooth="yes"/>
      <point x="184" y="0" type="line" smooth="yes"/>
      <point x="213" y="0"/>
      <point x="229" y="16"/>
      <point x="229" y="45" type="curve" smooth="yes"/>
      <point x="229" y="275" type="line"/>
      <point x="434" y="275" type="line"/>
      <point x="434" y="45" type="line" smooth="yes"/>
      <point x="434" y="16"/>
      <point x="450" y="0"/>
      <point x="479" y="0" type="curve" smooth="yes"/>
      <point x="578" y="0" type="line" smooth="yes"/>
      <point x="607" y="0"/>
      <point x="623" y="16"/>
      <point x="623" y="45" type="curve" smooth="yes"/>
    </contour>
  </outline>
</glyph>
<glyph name="I" format="1">
  <advance width="348"/>
  <unicode hex="0049"/>
  <outline>
    <contour>
      <point x="85" y="740" type="line" smooth="yes"/>
      <point x="56" y="740"/>
      <point x="40" y="724"/>
      <point x="40" y="695" type="curve" smooth="yes"/>
      <point x="40" y="45" type="line" smooth="yes"/>
      <point x="40" y="16"/>
      <point x="56" y="0"/>
      <point x="85" y="0" type="curve" smooth="yes"/>
      <point x="184" y="0" type="line" smooth="yes"/>
      <point x="213" y="0"/>
      <point x="229" y="16"/>
      <point x="229" y="45" type="curve" smooth="yes"/>
      <point x="229" y="695" type="line" smooth="yes"/>
      <point x="229" y="724"/>
      <point x="213" y="740"/>
      <point x="184" y="740" type="curve" smooth="yes"/>
    </contour>
  </outline>
</glyph>
<glyph name="J" format="1">
  <advance width="714"/>
  <unicode hex="004A"/>
  <outline>
    <contour>
      <point x="77" y="197" type="line" smooth="yes"/>
      <point x="53" y="182"/>
      <point x="45" y="161"/>
      <point x="59" y="136" type="curve" smooth="yes"/>
      <point x="73" y="111"/>
      <point x="94" y="80"/>
      <point x="119" y="55" type="curve" smooth="yes"/>
      <point x="167" y="7"/>
      <point x="232" y="-19"/>
      <point x="307" y="-19" type="curve" smooth="yes"/>
      <point x="529" y="-19"/>
      <point x="593" y="149"/>
      <point x="593" y="275" type="curve" smooth="yes"/>
      <point x="593" y="694" type="line" smooth="yes"/>
      <point x="593" y="723"/>
      <point x="577" y="739"/>
      <point x="548" y="739" type="curve" smooth="yes"/>
      <point x="448" y="739" type="line" smooth="yes"/>
      <point x="419" y="739"/>
      <point x="403" y="723"/>
      <point x="403" y="694" type="curve" smooth="yes"/>
      <point x="403" y="298" type="line" smooth="yes"/>
      <point x="403" y="186"/>
      <point x="355" y="173"/>
      <point x="307" y="173" type="curve" smooth="yes"/>
      <point x="272" y="173"/>
      <point x="244" y="202"/>
      <point x="225" y="231" type="curve" smooth="yes"/>
      <point x="209" y="255"/>
      <point x="189" y="262"/>
      <point x="164" y="247" type="curve" smooth="yes"/>
    </contour>
  </outline>
</glyph>
<glyph name="K" format="1">
  <advance width="731"/>
  <unicode hex="004B"/>
  <outline>
    <contour>
      <point x="593" y="684" type="line" smooth="yes"/>
      <point x="618" y="713"/>
      <point x="606" y="739"/>
      <point x="567" y="739" type="curve" smooth="yes"/>
      <point x="458" y="739" type="line" smooth="yes"/>
      <point x="435" y="739"/>
      <point x="419" y="732"/>
      <point x="403" y="714" type="curve" smooth="yes"/>
      <point x="229" y="513" type="line"/>
      <point x="229" y="695" type="line" smooth="yes"/>
      <point x="229" y="724"/>
      <point x="213" y="740"/>
      <point x="184" y="740" type="curve" smooth="yes"/>
      <point x="85" y="740" type="line" smooth="yes"/>
      <point x="56" y="740"/>
      <point x="40" y="724"/>
      <point x="40" y="695" type="curve" smooth="yes"/>
      <point x="40" y="45" type="line" smooth="yes"/>
      <point x="40" y="16"/>
      <point x="56" y="0"/>
      <point x="85" y="0" type="curve" smooth="yes"/>
      <point x="184" y="0" type="line" smooth="yes"/>
      <point x="213" y="0"/>
      <point x="229" y="16"/>
      <point x="229" y="45" type="curve" smooth="yes"/>
      <point x="229" y="227" type="line"/>
      <point x="399" y="26" type="line" smooth="yes"/>
      <point x="415" y="8"/>
      <point x="431" y="0"/>
      <point x="454" y="0" type="curve" smooth="yes"/>
      <point x="582" y="0" type="line" smooth="yes"/>
      <point x="621" y="0"/>
      <point x="633" y="26"/>
      <point x="607" y="55" type="curve" smooth="yes"/>
      <point x="329" y="377" type="line"/>
    </contour>
  </outline>
</glyph>
<glyph name="M" format="1">
  <advance width="908"/>
  <unicode hex="004D"/>
  <outline>
    <contour>
      <point x="40" y="45" type="line" smooth="yes"/>
      <point x="40" y="16"/>
      <point x="56" y="0"/>
      <point x="85" y="0" type="curve" smooth="yes"/>
      <point x="184" y="0" type="line" smooth="yes"/>
      <point x="213" y="0"/>
      <point x="229" y="16"/>
      <point x="229" y="45" type="curve" smooth="yes"/>
      <point x="229" y="302" type="line"/>
      <point x="341" y="35" type="line" smooth="yes"/>
      <point x="351" y="11"/>
      <point x="368" y="0"/>
      <point x="394" y="0" type="curve" smooth="yes"/>
      <point x="434" y="0" type="line" smooth="yes"/>
      <point x="460" y="0"/>
      <point x="477" y="11"/>
      <point x="487" y="35" type="curve" smooth="yes"/>
      <point x="600" y="303" type="line"/>
      <point x="600" y="45" type="line" smooth="yes"/>
      <point x="600" y="16"/>
      <point x="616" y="0"/>
      <point x="645" y="0" type="curve" smooth="yes"/>
      <point x="744" y="0" type="line" smooth="yes"/>
      <point x="773" y="0"/>
      <point x="789" y="16"/>
      <point x="789" y="45" type="curve" smooth="yes"/>
      <point x="789" y="695" type="line" smooth="yes"/>
      <point x="789" y="724"/>
      <point x="773" y="740"/>
      <point x="744" y="740" type="curve" smooth="yes"/>
      <point x="660" y="740" type="line" smooth="yes"/>
      <point x="635" y="740"/>
      <point x="618" y="730"/>
      <point x="607" y="706" type="curve" smooth="yes"/>
      <point x="414" y="291" type="line"/>
      <point x="222" y="706" type="line" smooth="yes"/>
      <point x="211" y="730"/>
      <point x="194" y="740"/>
      <point x="169" y="740" type="curve" smooth="yes"/>
      <point x="85" y="740" type="line" smooth="yes"/>
      <point x="56" y="740"/>
      <point x="40" y="724"/>
      <point x="40" y="695" type="curve" smooth="yes"/>
    </contour>
  </outline>
</glyph>
<glyph name="N" format="1">
  <advance width="777"/>
  <unicode hex="004E"/>
  <outline>
    <contour>
      <point x="184" y="0" type="line" smooth="yes"/>
      <point x="213" y="0"/>
      <point x="229" y="16"/>
      <point x="229" y="45" type="curve" smooth="yes"/>
      <point x="229" y="367" type="line"/>
      <point x="460" y="29" type="line" smooth="yes"/>
      <point x="474" y="9"/>
      <point x="490" y="0"/>
      <point x="515" y="0" type="curve" smooth="yes"/>
      <point x="601" y="0" type="line" smooth="yes"/>
      <point x="630" y="0"/>
      <point x="646" y="16"/>
      <point x="646" y="45" type="curve" smooth="yes"/>
      <point x="646" y="695" type="line" smooth="yes"/>
      <point x="646" y="724"/>
      <point x="630" y="740"/>
      <point x="601" y="740" type="curve" smooth="yes"/>
      <point x="502" y="740" type="line" smooth="yes"/>
      <point x="473" y="740"/>
      <point x="457" y="724"/>
      <point x="457" y="695" type="curve" smooth="yes"/>
      <point x="457" y="376" type="line"/>
      <point x="226" y="711" type="line" smooth="yes"/>
      <point x="212" y="731"/>
      <point x="196" y="740"/>
      <point x="171" y="740" type="curve" smooth="yes"/>
      <point x="85" y="740" type="line" smooth="yes"/>
      <point x="56" y="740"/>
      <point x="40" y="724"/>
      <point x="40" y="695" type="curve" smooth="yes"/>
      <point x="40" y="45" type="line" smooth="yes"/>
      <point x="40" y="16"/>
      <point x="56" y="0"/>
      <point x="85" y="0" type="curve" smooth="yes"/>
    </contour>
  </outline>
</glyph>
<glyph name="O" format="1">
  <advance width="913"/>
  <unicode hex="004F"/>
  <outline>
    <contour>
      <point x="643" y="-18"/>
      <point x="818" y="156"/>
      <point x="818" y="370" type="curve" smooth="yes"/>
      <point x="818" y="585"/>
      <point x="643" y="759"/>
      <point x="429" y="759" type="curve" smooth="yes"/>
      <point x="214" y="759"/>
      <point x="40" y="585"/>
      <point x="40" y="370" type="curve" smooth="yes"/>
      <point x="40" y="156"/>
      <point x="214" y="-18"/>
      <point x="429" y="-18" type="curve" smooth="yes"/>
    </contour>
    <contour>
      <point x="539" y="570"/>
      <point x="628" y="480"/>
      <point x="628" y="370" type="curve" smooth="yes"/>
      <point x="628" y="260"/>
      <point x="539" y="171"/>
      <point x="429" y="171" type="curve" smooth="yes"/>
      <point x="319" y="171"/>
      <point x="229" y="260"/>
      <point x="229" y="370" type="curve" smooth="yes"/>
      <point x="229" y="480"/>
      <point x="319" y="570"/>
      <point x="429" y="570" type="curve" smooth="yes"/>
    </contour>
  </outline>
</glyph>
<glyph name="P" format="1">
  <advance width="703"/>
  <unicode hex="0050"/>
  <outline>
    <contour>
      <point x="618" y="588"/>
      <point x="578" y="654"/>
      <point x="545" y="684" type="curve" smooth="yes"/>
      <point x="503" y="721"/>
      <point x="448" y="740"/>
      <point x="385" y="740" type="curve" smooth="yes"/>
      <point x="81" y="740" type="line" smooth="yes"/>
      <point x="52" y="740"/>
      <point x="36" y="724"/>
      <point x="36" y="695" type="curve" smooth="yes"/>
      <point x="36" y="45" type="line" smooth="yes"/>
      <point x="36" y="16"/>
      <point x="52" y="0"/>
      <point x="81" y="0" type="curve" smooth="yes"/>
      <point x="180" y="0" type="line" smooth="yes"/>
      <point x="209" y="0"/>
      <point x="225" y="16"/>
      <point x="225" y="45" type="curve" smooth="yes"/>
      <point x="225" y="252" type="line"/>
      <point x="368" y="252" type="line" smooth="yes"/>
      <point x="431" y="252"/>
      <point x="490" y="271"/>
      <point x="534" y="306" type="curve" smooth="yes"/>
      <point x="588" y="349"/>
      <point x="618" y="424"/>
      <point x="618" y="497" type="curve" smooth="yes"/>
    </contour>
    <contour>
      <point x="436" y="458"/>
      <point x="403" y="434"/>
      <point x="368" y="434" type="curve" smooth="yes"/>
      <point x="225" y="434" type="line"/>
      <point x="225" y="558" type="line"/>
      <point x="375" y="558" type="line" smooth="yes"/>
      <point x="415" y="558"/>
      <point x="436" y="531"/>
      <point x="436" y="497" type="curve" smooth="yes"/>
    </contour>
  </outline>
</glyph>
<glyph name="Q" format="1">
  <advance width="927"/>
  <unicode hex="0051"/>
  <outline>
    <contour>
      <point x="782" y="-29" type="line" smooth="yes"/>
      <point x="805" y="-11"/>
      <point x="808" y="11"/>
      <point x="790" y="35" type="curve" smooth="yes"/>
      <point x="725" y="118" type="line"/>
      <point x="783" y="186"/>
      <point x="818" y="274"/>
      <point x="818" y="370" type="curve" smooth="yes"/>
      <point x="818" y="585"/>
      <point x="643" y="759"/>
      <point x="429" y="759" type="curve" smooth="yes"/>
      <point x="214" y="759"/>
      <point x="40" y="585"/>
      <point x="40" y="370" type="curve" smooth="yes"/>
      <point x="40" y="156"/>
      <point x="214" y="-18"/>
      <point x="429" y="-18" type="curve" smooth="yes"/>
      <point x="479" y="-18"/>
      <point x="527" y="-9"/>
      <point x="571" y="8" type="curve"/>
      <point x="641" y="-82" type="line" smooth="yes"/>
      <point x="659" y="-105"/>
      <point x="681" y="-107"/>
      <point x="704" y="-89" type="curve" smooth="yes"/>
    </contour>
    <contour>
      <point x="438" y="171"/>
      <point x="434" y="171"/>
      <point x="429" y="171" type="curve" smooth="yes"/>
      <point x="319" y="171"/>
      <point x="229" y="260"/>
      <point x="229" y="370" type="curve" smooth="yes"/>
      <point x="229" y="480"/>
      <point x="319" y="570"/>
      <point x="429" y="570" type="curve" smooth="yes"/>
      <point x="539" y="570"/>
      <point x="628" y="480"/>
      <point x="628" y="370" type="curve" smooth="yes"/>
      <point x="628" y="335"/>
      <point x="619" y="302"/>
      <point x="603" y="274" type="curve"/>
      <point x="550" y="343" type="line" smooth="yes"/>
      <point x="532" y="366"/>
      <point x="510" y="368"/>
      <point x="486" y="351" type="curve" smooth="yes"/>
      <point x="408" y="290" type="line" smooth="yes"/>
      <point x="385" y="272"/>
      <point x="383" y="250"/>
      <point x="401" y="226" type="curve" smooth="yes"/>
      <point x="443" y="172" type="line"/>
    </contour>
  </outline>
</glyph>
<glyph name="R" format="1">
  <advance width="715"/>
  <unicode hex="0052"/>
  <outline>
    <contour>
      <point x="622" y="588"/>
      <point x="582" y="654"/>
      <point x="549" y="684" type="curve" smooth="yes"/>
      <point x="507" y="721"/>
      <point x="452" y="740"/>
      <point x="389" y="740" type="curve" smooth="yes"/>
      <point x="85" y="740" type="line" smooth="yes"/>
      <point x="56" y="740"/>
      <point x="40" y="724"/>
      <point x="40" y="695" type="curve" smooth="yes"/>
      <point x="40" y="45" type="line" smooth="yes"/>
      <point x="40" y="16"/>
      <point x="56" y="0"/>
      <point x="85" y="0" type="curve" smooth="yes"/>
      <point x="184" y="0" type="line" smooth="yes"/>
      <point x="213" y="0"/>
      <point x="229" y="16"/>
      <point x="229" y="45" type="curve" smooth="yes"/>
      <point x="229" y="264" type="line"/>
      <point x="320" y="264" type="line"/>
      <point x="408" y="35" type="line" smooth="yes"/>
      <point x="418" y="11"/>
      <point x="434" y="0"/>
      <point x="460" y="0" type="curve" smooth="yes"/>
      <point x="570" y="0" type="line" smooth="yes"/>
      <point x="604" y="0"/>
      <point x="618" y="21"/>
      <point x="605" y="52" type="curve" smooth="yes"/>
      <point x="505" y="287" type="line"/>
      <point x="507" y="288"/>
      <point x="522" y="293"/>
      <point x="538" y="306" type="curve" smooth="yes"/>
      <point x="592" y="349"/>
      <point x="622" y="424"/>
      <point x="622" y="497" type="curve" smooth="yes"/>
    </contour>
    <contour>
      <point x="439" y="458"/>
      <point x="407" y="434"/>
      <point x="372" y="434" type="curve" smooth="yes"/>
      <point x="229" y="434" type="line"/>
      <point x="229" y="558" type="line"/>
      <point x="379" y="558" type="line" smooth="yes"/>
      <point x="419" y="558"/>
      <point x="439" y="532"/>
      <point x="439" y="497" type="curve" smooth="yes"/>
    </contour>
  </outline>
</glyph>
<glyph name="T" format="1">
  <advance width="706"/>
  <unicode hex="0054"/>
  <outline>
    <contour>
      <point x="383" y="0" type="line" smooth="yes"/>
      <point x="412" y="0"/>
      <point x="428" y="16"/>
      <point x="428" y="45" type="curve" smooth="yes"/>
      <point x="428" y="551" type="line"/>
      <point x="582" y="551" type="line" smooth="yes"/>
      <point x="611" y="551"/>
      <point x="627" y="567"/>
      <point x="627" y="596" type="curve" smooth="yes"/>
      <point x="627" y="695" type="line" smooth="yes"/>
      <point x="627" y="724"/>
      <point x="611" y="740"/>
      <point x="582" y="740" type="curve" smooth="yes"/>
      <point x="85" y="740" type="line" smooth="yes"/>
      <point x="56" y="740"/>
      <point x="40" y="724"/>
      <point x="40" y="695" type="curve" smooth="yes"/>
      <point x="40" y="596" type="line" smooth="yes"/>
      <point x="40" y="567"/>
      <point x="56" y="551"/>
      <point x="85" y="551" type="curve" smooth="yes"/>
      <point x="239" y="551" type="line"/>
      <point x="239" y="45" type="line" smooth="yes"/>
      <point x="239" y="16"/>
      <point x="255" y="0"/>
      <point x="284" y="0" type="curve" smooth="yes"/>
    </contour>
  </outline>
</glyph>
<glyph name="U" format="1">
  <advance width="846"/>
  <unicode hex="0055"/>
  <outline>
    <contour>
      <point x="726" y="695" type="line" smooth="yes"/>
      <point x="726" y="724"/>
      <point x="710" y="740"/>
      <point x="681" y="740" type="curve" smooth="yes"/>
      <point x="581" y="740" type="line" smooth="yes"/>
      <point x="552" y="740"/>
      <point x="536" y="724"/>
      <point x="536" y="695" type="curve" smooth="yes"/>
      <point x="536" y="347" type="line" smooth="yes"/>
      <point x="536" y="243"/>
      <point x="467" y="166"/>
      <point x="383" y="166" type="curve" smooth="yes"/>
      <point x="298" y="166"/>
      <point x="229" y="243"/>
      <point x="229" y="347" type="curve" smooth="yes"/>
      <point x="229" y="695" type="line" smooth="yes"/>
      <point x="229" y="724"/>
      <point x="213" y="740"/>
      <point x="184" y="740" type="curve" smooth="yes"/>
      <point x="85" y="740" type="line" smooth="yes"/>
      <point x="56" y="740"/>
      <point x="40" y="724"/>
      <point x="40" y="695" type="curve" smooth="yes"/>
      <point x="40" y="347" type="line" smooth="yes"/>
      <point x="45" y="149"/>
      <point x="182" y="-18"/>
      <point x="383" y="-18" type="curve" smooth="yes"/>
      <point x="590" y="-18"/>
      <point x="724" y="162"/>
      <point x="726" y="347" type="curve" smooth="yes"/>
    </contour>
  </outline>
</glyph>
<glyph name="V" format="1">
  <advance width="805"/>
  <unicode hex="0056"/>
  <outline>
    <contour>
      <point x="386" y="320" type="line"/>
      <point x="253" y="705" type="line" smooth="yes"/>
      <point x="244" y="729"/>
      <point x="228" y="741"/>
      <point x="201" y="741" type="curve" smooth="yes"/>
      <point x="94" y="741" type="line" smooth="yes"/>
      <point x="61" y="741"/>
      <point x="47" y="721"/>
      <point x="58" y="690" type="curve" smooth="yes"/>
      <point x="284" y="36" type="line" smooth="yes"/>
      <point x="293" y="12"/>
      <point x="309" y="0"/>
      <point x="336" y="0" type="curve" smooth="yes"/>
      <point x="437" y="0" type="line" smooth="yes"/>
      <point x="464" y="0"/>
      <point x="480" y="12"/>
      <point x="489" y="36" type="curve" smooth="yes"/>
      <point x="714" y="690" type="line" smooth="yes"/>
      <point x="725" y="721"/>
      <point x="711" y="741"/>
      <point x="678" y="741" type="curve" smooth="yes"/>
      <point x="571" y="741" type="line" smooth="yes"/>
      <point x="544" y="741"/>
      <point x="528" y="729"/>
      <point x="519" y="705" type="curve" smooth="yes"/>
    </contour>
  </outline>
</glyph>
<glyph name="Y" format="1">
  <advance width="757"/>
  <unicode hex="0059"/>
  <outline>
    <contour>
      <point x="421" y="0" type="line" smooth="yes"/>
      <point x="450" y="0"/>
      <point x="466" y="16"/>
      <point x="466" y="45" type="curve" smooth="yes"/>
      <point x="466" y="344" type="line"/>
      <point x="678" y="686" type="line" smooth="yes"/>
      <point x="698" y="717"/>
      <point x="685" y="740"/>
      <point x="648" y="740" type="curve" smooth="yes"/>
      <point x="529" y="740" type="line" smooth="yes"/>
      <point x="505" y="740"/>
      <point x="488" y="731"/>
      <point x="475" y="710" type="curve" smooth="yes"/>
      <point x="371" y="543" type="line"/>
      <point x="267" y="710" type="line" smooth="yes"/>
      <point x="254" y="731"/>
      <point x="237" y="740"/>
      <point x="213" y="740" type="curve" smooth="yes"/>
      <point x="94" y="740" type="line" smooth="yes"/>
      <point x="57" y="740"/>
      <point x="45" y="717"/>
      <point x="64" y="686" type="curve" smooth="yes"/>
      <point x="277" y="344" type="line"/>
      <point x="277" y="45" type="line" smooth="yes"/>
      <point x="277" y="16"/>
      <point x="293" y="0"/>
      <point x="322" y="0" type="curve" smooth="yes"/>
    </contour>
  </outline>
</glyph>
<glyph name="bracketleft" format="1">
  <advance width="365"/>
  <unicode hex="005B"/>
  <outline>
    <contour>
      <point x="189" y="11" type="line"/>
      <point x="189" y="714" type="line"/>
      <point x="283" y="714" type="line" smooth="yes"/>
      <point x="312" y="714"/>
      <point x="328" y="730"/>
      <point x="328" y="759" type="curve" smooth="yes"/>
      <point x="328" y="788" type="line" smooth="yes"/>
      <point x="328" y="817"/>
      <point x="312" y="833"/>
      <point x="283" y="833" type="curve" smooth="yes"/>
      <point x="85" y="833" type="line" smooth="yes"/>
      <point x="56" y="833"/>
      <point x="40" y="817"/>
      <point x="40" y="788" type="curve" smooth="yes"/>
      <point x="40" y="-64" type="line" smooth="yes"/>
      <point x="40" y="-93"/>
      <point x="56" y="-109"/>
      <point x="85" y="-109" type="curve" smooth="yes"/>
      <point x="283" y="-109" type="line" smooth="yes"/>
      <point x="312" y="-109"/>
      <point x="328" y="-93"/>
      <point x="328" y="-64" type="curve" smooth="yes"/>
      <point x="328" y="-34" type="line" smooth="yes"/>
      <point x="328" y="-5"/>
      <point x="312" y="11"/>
      <point x="283" y="11" type="curve" smooth="yes"/>
    </contour>
  </outline>
</glyph>
<glyph name="backslash" format="1">
  <advance width="507"/>
  <unicode hex="005C"/>
  <outline>
    <contour>
      <point x="207" y="770" type="line" smooth="yes"/>
      <point x="200" y="796"/>
      <point x="183" y="808"/>
      <point x="157" y="808" type="curve" smooth="yes"/>
      <point x="83" y="808" type="line" smooth="yes"/>
      <point x="50" y="808"/>
      <point x="36" y="788"/>
      <point x="45" y="757" type="curve" smooth="yes"/>
      <point x="282" y="-36" type="line" smooth="yes"/>
      <point x="289" y="-62"/>
      <point x="306" y="-74"/>
      <point x="332" y="-74" type="curve" smooth="yes"/>
      <point x="406" y="-74" type="line" smooth="yes"/>
      <point x="439" y="-74"/>
      <point x="453" y="-54"/>
      <point x="444" y="-23" type="curve" smooth="yes"/>
    </contour>
  </outline>
</glyph>
<glyph name="bracketright" format="1">
  <advance width="388"/>
  <unicode hex="005D"/>
  <outline>
    <contour>
      <point x="75" y="11" type="line" smooth="yes"/>
      <point x="46" y="11"/>
      <point x="30" y="-5"/>
      <point x="30" y="-34" type="curve" smooth="yes"/>
      <point x="30" y="-64" type="line" smooth="yes"/>
      <point x="30" y="-93"/>
      <point x="46" y="-109"/>
      <point x="75" y="-109" type="curve" smooth="yes"/>
      <point x="273" y="-109" type="line" smooth="yes"/>
      <point x="302" y="-109"/>
      <point x="318" y="-93"/>
      <point x="318" y="-64" type="curve" smooth="yes"/>
      <point x="318" y="788" type="line" smooth="yes"/>
      <point x="318" y="817"/>
      <point x="302" y="833"/>
      <point x="273" y="833" type="curve" smooth="yes"/>
      <point x="75" y="833" type="line" smooth="yes"/>
      <point x="46" y="833"/>
      <point x="30" y="817"/>
      <point x="30" y="788" type="curve" smooth="yes"/>
      <point x="30" y="759" type="line" smooth="yes"/>
      <point x="30" y="730"/>
      <point x="46" y="714"/>
      <point x="75" y="714" type="curve" smooth="yes"/>
      <point x="169" y="714" type="line"/>
      <point x="169" y="11" type="line"/>
    </contour>
  </outline>
</glyph>
<glyph name="asciicircum" format="1">
  <advance width="474"/>
  <unicode hex="005E"/>
  <outline>
    <contour>
      <point x="265" y="571" type="line" smooth="yes"/>
      <point x="281" y="553"/>
      <point x="297" y="545"/>
      <point x="321" y="545" type="curve" smooth="yes"/>
      <point x="338" y="545" type="line" smooth="yes"/>
      <point x="377" y="545"/>
      <point x="389" y="570"/>
      <point x="364" y="600" type="curve" smooth="yes"/>
      <point x="274" y="712" type="line" smooth="yes"/>
      <point x="259" y="730"/>
      <point x="243" y="738"/>
      <point x="219" y="738" type="curve" smooth="yes"/>
      <point x="217" y="738" type="line" smooth="yes"/>
      <point x="193" y="738"/>
      <point x="177" y="730"/>
      <point x="162" y="712" type="curve" smooth="yes"/>
      <point x="71" y="600" type="line" smooth="yes"/>
      <point x="47" y="570"/>
      <point x="59" y="545"/>
      <point x="97" y="545" type="curve" smooth="yes"/>
      <point x="115" y="545" type="line" smooth="yes"/>
      <point x="138" y="545"/>
      <point x="154" y="552"/>
      <point x="170" y="570" type="curve" smooth="yes"/>
      <point x="218" y="627" type="line"/>
    </contour>
  </outline>
</glyph>
<glyph name="underscore" format="1">
  <advance width="660"/>
  <unicode hex="005F"/>
  <outline>
    <contour>
      <point x="524" y="-83" type="line" smooth="yes"/>
      <point x="553" y="-83"/>
      <point x="569" y="-67"/>
      <point x="569" y="-38" type="curve" smooth="yes"/>
      <point x="569" y="38" type="line" smooth="yes"/>
      <point x="569" y="67"/>
      <point x="553" y="83"/>
      <point x="524" y="83" type="curve" smooth="yes"/>
      <point x="75" y="83" type="line" smooth="yes"/>
      <point x="46" y="83"/>
      <point x="30" y="67"/>
      <point x="30" y="38" type="curve" smooth="yes"/>
      <point x="30" y="-38" type="line" smooth="yes"/>
      <point x="30" y="-67"/>
      <point x="46" y="-83"/>
      <point x="75" y="-83" type="curve" smooth="yes"/>
    </contour>
  </outline>
</glyph>
<glyph name="a" format="1">
  <advance width="824"/>
  <unicode hex="0061"/>
  <outline>
    <contour>
      <point x="334" y="740" type="line" smooth="yes"/>
      <point x="308" y="740"/>
      <point x="292" y="728"/>
      <point x="283" y="704" type="curve" smooth="yes"/>
      <point x="54" y="52" type="line" smooth="yes"/>
      <point x="43" y="20"/>
      <point x="57" y="0"/>
      <point x="91" y="0" type="curve" smooth="yes"/>
      <point x="199" y="0" type="line" smooth="yes"/>
      <point x="226" y="0"/>
      <point x="242" y="12"/>
      <point x="251" y="37" type="curve" smooth="yes"/>
      <point x="282" y="128" type="line"/>
      <point x="502" y="128" type="line"/>
      <point x="533" y="37" type="line" smooth="yes"/>
      <point x="541" y="12"/>
      <point x="557" y="0"/>
      <point x="584" y="0" type="curve" smooth="yes"/>
      <point x="691" y="0" type="line" smooth="yes"/>
      <point x="725" y="0"/>
      <point x="739" y="20"/>
      <point x="728" y="52" type="curve" smooth="yes"/>
      <point x="500" y="704" type="line" smooth="yes"/>
      <point x="491" y="728"/>
      <point x="475" y="740"/>
      <point x="448" y="740" type="curve" smooth="yes"/>
    </contour>
    <contour>
      <point x="328" y="292" type="line"/>
      <point x="391" y="497" type="line"/>
      <point x="460" y="292" type="line"/>
    </contour>
  </outline>
</glyph>
<glyph name="b" format="1">
  <advance width="733"/>
  <unicode hex="0062"/>
  <outline>
    <contour>
      <point x="587" y="0"/>
      <point x="644" y="150"/>
      <point x="638" y="234" type="curve" smooth="yes"/>
      <point x="631" y="333"/>
      <point x="554" y="387"/>
      <point x="527" y="391" type="curve"/>
      <point x="557" y="401"/>
      <point x="596" y="459"/>
      <point x="596" y="520" type="curve" smooth="yes"/>
      <point x="596" y="521" type="line" smooth="yes"/>
      <point x="596" y="612"/>
      <point x="556" y="654"/>
      <point x="523" y="684" type="curve" smooth="yes"/>
      <point x="481" y="721"/>
      <point x="425" y="740"/>
      <point x="363" y="740" type="curve" smooth="yes"/>
      <point x="85" y="740" type="line" smooth="yes"/>
      <point x="56" y="740"/>
      <point x="40" y="724"/>
      <point x="40" y="695" type="curve" smooth="yes"/>
      <point x="40" y="45" type="line" smooth="yes"/>
      <point x="40" y="16"/>
      <point x="56" y="0"/>
      <point x="85" y="0" type="curve" smooth="yes"/>
      <point x="416" y="0" type="line" smooth="yes"/>
    </contour>
    <contour>
      <point x="363" y="572" type="line" smooth="yes"/>
      <point x="403" y="572"/>
      <point x="420" y="540"/>
      <point x="420" y="507" type="curve" smooth="yes"/>
      <point x="420" y="467"/>
      <point x="383" y="448"/>
      <point x="353" y="448" type="curve" smooth="yes"/>
      <point x="220" y="448" type="line"/>
      <point x="220" y="572" type="line"/>
    </contour>
    <contour>
      <point x="378" y="295" type="line" smooth="yes"/>
      <point x="422" y="295"/>
      <point x="449" y="275"/>
      <point x="449" y="233" type="curve" smooth="yes"/>
      <point x="449" y="191"/>
      <point x="420" y="171"/>
      <point x="384" y="171" type="curve" smooth="yes"/>
      <point x="220" y="171" type="line"/>
      <point x="220" y="295" type="line"/>
    </contour>
  </outline>
</glyph>
<glyph name="f" format="1">
  <advance width="646"/>
  <unicode hex="0066"/>
  <outline>
    <contour>
      <point x="425" y="283" type="line" smooth="yes"/>
      <point x="454" y="283"/>
      <point x="470" y="299"/>
      <point x="470" y="328" type="curve" smooth="yes"/>
      <point x="470" y="413" type="line" smooth="yes"/>
      <point x="470" y="442"/>
      <point x="454" y="458"/>
      <point x="425" y="458" type="curve" smooth="yes"/>
      <point x="229" y="458" type="line"/>
      <point x="229" y="551" type="line"/>
      <point x="500" y="551" type="line" smooth="yes"/>
      <point x="529" y="551"/>
      <point x="545" y="567"/>
      <point x="545" y="596" type="curve" smooth="yes"/>
      <point x="545" y="695" type="line" smooth="yes"/>
      <point x="545" y="724"/>
      <point x="529" y="740"/>
      <point x="500" y="740" type="curve" smooth="yes"/>
      <point x="85" y="740" type="line" smooth="yes"/>
      <point x="56" y="740"/>
      <point x="40" y="724"/>
      <point x="40" y="695" type="curve" smooth="yes"/>
      <point x="40" y="45" type="line" smooth="yes"/>
      <point x="40" y="16"/>
      <point x="56" y="0"/>
      <point x="85" y="0" type="curve" smooth="yes"/>
      <point x="184" y="0" type="line" smooth="yes"/>
      <point x="213" y="0"/>
      <point x="229" y="16"/>
      <point x="229" y="45" type="curve" smooth="yes"/>
      <point x="229" y="283" type="line"/>
    </contour>
  </outline>
</glyph>
<glyph name="l" format="1">
  <advance width="646"/>
  <unicode hex="006C"/>
  <outline>
    <contour>
      <point x="229" y="189" type="line"/>
      <point x="229" y="695" type="line" smooth="yes"/>
      <point x="229" y="724"/>
      <point x="213" y="740"/>
      <point x="184" y="740" type="curve" smooth="yes"/>
      <point x="85" y="740" type="line" smooth="yes"/>
      <point x="56" y="740"/>
      <point x="40" y="724"/>
      <point x="40" y="695" type="curve" smooth="yes"/>
      <point x="40" y="45" type="line" smooth="yes"/>
      <point x="40" y="16"/>
      <point x="56" y="0"/>
      <point x="85" y="0" type="curve" smooth="yes"/>
      <point x="494" y="0" type="line" smooth="yes"/>
      <point x="523" y="0"/>
      <point x="539" y="16"/>
      <point x="539" y="45" type="curve" smooth="yes"/>
      <point x="539" y="144" type="line" smooth="yes"/>
      <point x="539" y="173"/>
      <point x="523" y="189"/>
      <point x="494" y="189" type="curve" smooth="yes"/>
    </contour>
  </outline>
</glyph>
<glyph name="s" format="1">
  <advance width="764"/>
  <unicode hex="0073"/>
  <outline>
    <contour>
      <point x="451" y="164"/>
      <point x="401" y="158"/>
      <point x="344" y="164" type="curve" smooth="yes"/>
      <point x="287" y="171"/>
      <point x="247" y="185"/>
      <point x="195" y="216" type="curve" smooth="yes"/>
      <point x="170" y="231"/>
      <point x="149" y="228"/>
      <point x="132" y="205" type="curve" smooth="yes"/>
      <point x="65" y="121" type="line" smooth="yes"/>
      <point x="47" y="97"/>
      <point x="50" y="73"/>
      <point x="77" y="58" type="curve" smooth="yes"/>
      <point x="177" y="1"/>
      <point x="266" y="-15"/>
      <point x="343" y="-19" type="curve" smooth="yes"/>
      <point x="356" y="-20"/>
      <point x="369" y="-20"/>
      <point x="381" y="-20" type="curve" smooth="yes"/>
      <point x="575" y="-20"/>
      <point x="660" y="77"/>
      <point x="674" y="173" type="curve" smooth="yes"/>
      <point x="684" y="235"/>
      <point x="675" y="297"/>
      <point x="636" y="347" type="curve" smooth="yes"/>
      <point x="599" y="395"/>
      <point x="515" y="436"/>
      <point x="359" y="467" type="curve" smooth="yes"/>
      <point x="296" y="480"/>
      <point x="248" y="497"/>
      <point x="263" y="537" type="curve" smooth="yes"/>
      <point x="269" y="553"/>
      <point x="295" y="583"/>
      <point x="367" y="583" type="curve" smooth="yes"/>
      <point x="423" y="583"/>
      <point x="474" y="562"/>
      <point x="510" y="541" type="curve" smooth="yes"/>
      <point x="535" y="527"/>
      <point x="556" y="530"/>
      <point x="572" y="554" type="curve" smooth="yes"/>
      <point x="626" y="629" type="line" smooth="yes"/>
      <point x="644" y="653"/>
      <point x="640" y="676"/>
      <point x="616" y="691" type="curve" smooth="yes"/>
      <point x="565" y="723"/>
      <point x="487" y="760"/>
      <point x="367" y="760" type="curve" smooth="yes"/>
      <point x="227" y="760"/>
      <point x="104" y="691"/>
      <point x="71" y="588" type="curve" smooth="yes"/>
      <point x="56" y="543"/>
      <point x="53" y="471"/>
      <point x="94" y="410" type="curve" smooth="yes"/>
      <point x="132" y="354"/>
      <point x="229" y="311"/>
      <point x="338" y="289" type="curve" smooth="yes"/>
      <point x="446" y="267"/>
      <point x="471" y="248"/>
      <point x="482" y="237" type="curve" smooth="yes"/>
      <point x="495" y="224"/>
      <point x="497" y="193"/>
      <point x="472" y="178" type="curve"/>
    </contour>
  </outline>
</glyph>
<glyph name="w" format="1">
  <advance width="1038"/>
  <unicode hex="0077"/>
  <outline>
    <contour>
      <point x="360" y="0" type="line" smooth="yes"/>
      <point x="387" y="0"/>
      <point x="403" y="12"/>
      <point x="411" y="38" type="curve" smooth="yes"/>
      <point x="506" y="386" type="line"/>
      <point x="601" y="38" type="line" smooth="yes"/>
      <point x="608" y="12"/>
      <point x="624" y="0"/>
      <point x="651" y="0" type="curve" smooth="yes"/>
      <point x="767" y="0" type="line" smooth="yes"/>
      <point x="795" y="0"/>
      <point x="811" y="13"/>
      <point x="817" y="40" type="curve" smooth="yes"/>
      <point x="959" y="692" type="line" smooth="yes"/>
      <point x="966" y="722"/>
      <point x="951" y="741"/>
      <point x="919" y="741" type="curve" smooth="yes"/>
      <point x="818" y="741" type="line" smooth="yes"/>
      <point x="790" y="741"/>
      <point x="774" y="728"/>
      <point x="768" y="701" type="curve" smooth="yes"/>
      <point x="699" y="378" type="line"/>
      <point x="610" y="703" type="line" smooth="yes"/>
      <point x="603" y="729"/>
      <point x="587" y="741"/>
      <point x="560" y="741" type="curve" smooth="yes"/>
      <point x="451" y="741" type="line" smooth="yes"/>
      <point x="424" y="741"/>
      <point x="408" y="729"/>
      <point x="401" y="703" type="curve" smooth="yes"/>
      <point x="312" y="376" type="line"/>
      <point x="243" y="701" type="line" smooth="yes"/>
      <point x="237" y="728"/>
      <point x="221" y="741"/>
      <point x="193" y="741" type="curve" smooth="yes"/>
      <point x="91" y="741" type="line" smooth="yes"/>
      <point x="59" y="741"/>
      <point x="44" y="722"/>
      <point x="51" y="692" type="curve" smooth="yes"/>
      <point x="194" y="40" type="line" smooth="yes"/>
      <point x="200" y="13"/>
      <point x="216" y="0"/>
      <point x="244" y="0" type="curve" smooth="yes"/>
    </contour>
  </outline>
</glyph>
<glyph name="x" format="1">
  <advance width="849"/>
  <unicode hex="0078"/>
  <outline>
    <contour>
      <point x="407" y="541" type="line"/>
      <point x="291" y="711" type="line" smooth="yes"/>
      <point x="277" y="731"/>
      <point x="261" y="740"/>
      <point x="236" y="740" type="curve" smooth="yes"/>
      <point x="108" y="740" type="line" smooth="yes"/>
      <point x="71" y="740"/>
      <point x="58" y="716"/>
      <point x="79" y="685" type="curve" smooth="yes"/>
      <point x="292" y="373" type="line"/>
      <point x="76" y="55" type="line" smooth="yes"/>
      <point x="55" y="24"/>
      <point x="68" y="0"/>
      <point x="105" y="0" type="curve" smooth="yes"/>
      <point x="233" y="0" type="line" smooth="yes"/>
      <point x="258" y="0"/>
      <point x="274" y="9"/>
      <point x="288" y="29" type="curve" smooth="yes"/>
      <point x="407" y="204" type="line"/>
      <point x="525" y="29" type="line" smooth="yes"/>
      <point x="539" y="9"/>
      <point x="555" y="0"/>
      <point x="580" y="0" type="curve" smooth="yes"/>
      <point x="708" y="0" type="line" smooth="yes"/>
      <point x="745" y="0"/>
      <point x="758" y="24"/>
      <point x="737" y="55" type="curve" smooth="yes"/>
      <point x="521" y="373" type="line"/>
      <point x="734" y="685" type="line" smooth="yes"/>
      <point x="755" y="716"/>
      <point x="742" y="740"/>
      <point x="705" y="740" type="curve" smooth="yes"/>
      <point x="577" y="740" type="line" smooth="yes"/>
      <point x="552" y="740"/>
      <point x="536" y="731"/>
      <point x="522" y="711" type="curve" smooth="yes"/>
    </contour>
  </outline>
</glyph>
<glyph name="z" format="1">
  <advance width="688"/>
  <unicode hex="007A"/>
  <outline>
    <contour>
      <point x="544" y="0" type="line" smooth="yes"/>
      <point x="573" y="0"/>
      <point x="589" y="16"/>
      <point x="589" y="45" type="curve" smooth="yes"/>
      <point x="589" y="144" type="line" smooth="yes"/>
      <point x="589" y="173"/>
      <point x="573" y="189"/>
      <point x="544" y="189" type="curve" smooth="yes"/>
      <point x="287" y="189" type="line"/>
      <point x="556" y="562" type="line" smooth="yes"/>
      <point x="569" y="580"/>
      <point x="574" y="596"/>
      <point x="574" y="618" type="curve" smooth="yes"/>
      <point x="574" y="695" type="line" smooth="yes"/>
      <point x="574" y="724"/>
      <point x="558" y="740"/>
      <point x="529" y="740" type="curve" smooth="yes"/>
      <point x="100" y="740" type="line" smooth="yes"/>
      <point x="71" y="740"/>
      <point x="55" y="724"/>
      <point x="55" y="695" type="curve" smooth="yes"/>
      <point x="55" y="596" type="line" smooth="yes"/>
      <point x="55" y="567"/>
      <point x="71" y="551"/>
      <point x="100" y="551" type="curve" smooth="yes"/>
      <point x="336" y="551" type="line"/>
      <point x="59" y="179" type="line" smooth="yes"/>
      <point x="45" y="161"/>
      <point x="40" y="145"/>
      <point x="40" y="123" type="curve" smooth="yes"/>
      <point x="40" y="45" type="line" smooth="yes"/>
      <point x="40" y="16"/>
      <point x="56" y="0"/>
      <point x="85" y="0" type="curve" smooth="yes"/>
    </contour>
  </outline>
</glyph>
<glyph name="braceleft" format="1">
  <advance width="363"/>
  <unicode hex="007B"/>
  <outline>
    <contour>
      <point x="87" y="52" type="line" smooth="yes"/>
      <point x="87" y="-50"/>
      <point x="139" y="-109"/>
      <point x="230" y="-109" type="curve" smooth="yes"/>
      <point x="276" y="-109" type="line" smooth="yes"/>
      <point x="305" y="-109"/>
      <point x="321" y="-93"/>
      <point x="321" y="-64" type="curve" smooth="yes"/>
      <point x="321" y="-25" type="line" smooth="yes"/>
      <point x="321" y="4"/>
      <point x="305" y="20"/>
      <point x="276" y="20" type="curve" smooth="yes"/>
      <point x="253" y="20"/>
      <point x="236" y="38"/>
      <point x="236" y="64" type="curve" smooth="yes"/>
      <point x="236" y="251" type="line" smooth="yes"/>
      <point x="236" y="317"/>
      <point x="197" y="352"/>
      <point x="149" y="362" type="curve"/>
      <point x="200" y="371"/>
      <point x="236" y="415"/>
      <point x="236" y="474" type="curve" smooth="yes"/>
      <point x="236" y="661" type="line" smooth="yes"/>
      <point x="236" y="686"/>
      <point x="253" y="705"/>
      <point x="276" y="705" type="curve" smooth="yes"/>
      <point x="305" y="705"/>
      <point x="321" y="721"/>
      <point x="321" y="750" type="curve" smooth="yes"/>
      <point x="321" y="788" type="line" smooth="yes"/>
      <point x="321" y="817"/>
      <point x="305" y="833"/>
      <point x="276" y="833" type="curve" smooth="yes"/>
      <point x="230" y="833" type="line" smooth="yes"/>
      <point x="139" y="833"/>
      <point x="87" y="775"/>
      <point x="87" y="673" type="curve" smooth="yes"/>
      <point x="87" y="454" type="line" smooth="yes"/>
      <point x="87" y="425"/>
      <point x="73" y="413"/>
      <point x="42" y="413" type="curve" smooth="yes"/>
      <point x="34" y="413"/>
      <point x="30" y="397"/>
      <point x="30" y="368" type="curve" smooth="yes"/>
      <point x="30" y="357" type="line" smooth="yes"/>
      <point x="30" y="328"/>
      <point x="34" y="312"/>
      <point x="42" y="312" type="curve" smooth="yes"/>
      <point x="73" y="312"/>
      <point x="87" y="299"/>
      <point x="87" y="271" type="curve" smooth="yes"/>
    </contour>
  </outline>
</glyph>
<glyph name="bar" format="1">
  <advance width="312"/>
  <unicode hex="007C"/>
  <outline>
    <contour>
      <point x="75" y="808" type="line" smooth="yes"/>
      <point x="46" y="808"/>
      <point x="30" y="792"/>
      <point x="30" y="763" type="curve" smooth="yes"/>
      <point x="30" y="-29" type="line" smooth="yes"/>
      <point x="30" y="-58"/>
      <point x="46" y="-74"/>
      <point x="75" y="-74" type="curve" smooth="yes"/>
      <point x="151" y="-74" type="line" smooth="yes"/>
      <point x="180" y="-74"/>
      <point x="196" y="-58"/>
      <point x="196" y="-29" type="curve" smooth="yes"/>
      <point x="196" y="763" type="line" smooth="yes"/>
      <point x="196" y="792"/>
      <point x="180" y="808"/>
      <point x="151" y="808" type="curve" smooth="yes"/>
    </contour>
  </outline>
</glyph>
<glyph name="braceright" format="1">
  <advance width="363"/>
  <unicode hex="007D"/>
  <outline>
    <contour>
      <point x="264" y="271" type="line" smooth="yes"/>
      <point x="264" y="299"/>
      <point x="278" y="312"/>
      <point x="309" y="312" type="curve" smooth="yes"/>
      <point x="317" y="312"/>
      <point x="321" y="328"/>
      <point x="321" y="357" type="curve" smooth="yes"/>
      <point x="321" y="368" type="line" smooth="yes"/>
      <point x="321" y="397"/>
      <point x="317" y="413"/>
      <point x="309" y="413" type="curve" smooth="yes"/>
      <point x="278" y="413"/>
      <point x="264" y="425"/>
      <point x="264" y="454" type="curve" smooth="yes"/>
      <point x="264" y="673" type="line" smooth="yes"/>
      <point x="264" y="775"/>
      <point x="212" y="833"/>
      <point x="121" y="833" type="curve" smooth="yes"/>
      <point x="75" y="833" type="line" smooth="yes"/>
      <point x="46" y="833"/>
      <point x="30" y="817"/>
      <point x="30" y="788" type="curve" smooth="yes"/>
      <point x="30" y="750" type="line" smooth="yes"/>
      <point x="30" y="721"/>
      <point x="46" y="705"/>
      <point x="75" y="705" type="curve" smooth="yes"/>
      <point x="75" y="705" type="line" smooth="yes"/>
      <point x="98" y="705"/>
      <point x="115" y="686"/>
      <point x="115" y="661" type="curve" smooth="yes"/>
      <point x="115" y="474" type="line" smooth="yes"/>
      <point x="115" y="415"/>
      <point x="151" y="371"/>
      <point x="202" y="362" type="curve"/>
      <point x="154" y="352"/>
      <point x="115" y="317"/>
      <point x="115" y="251" type="curve" smooth="yes"/>
      <point x="115" y="64" type="line" smooth="yes"/>
      <point x="115" y="38"/>
      <point x="98" y="20"/>
      <point x="75" y="20" type="curve" smooth="yes"/>
      <point x="75" y="20" type="line" smooth="yes"/>
      <point x="46" y="20"/>
      <point x="30" y="4"/>
      <point x="30" y="-25" type="curve" smooth="yes"/>
      <point x="30" y="-64" type="line" smooth="yes"/>
      <point x="30" y="-93"/>
      <point x="46" y="-109"/>
      <point x="75" y="-109" type="curve" smooth="yes"/>
      <point x="121" y="-109" type="line" smooth="yes"/>
      <point x="212" y="-109"/>
      <point x="264" y="-50"/>
      <point x="264" y="52" type="curve" smooth="yes"/>
    </contour>
  </outline>
</glyph>
<glyph name="copyright" format="1">
  <advance width="893"/>
  <unicode hex="00A9"/>
  <outline>
    <contour>
      <point x="632" y="-14"/>
      <point x="806" y="160"/>
      <point x="806" y="374" type="curve" smooth="yes"/>
      <point x="806" y="588"/>
      <point x="632" y="762"/>
      <point x="418" y="762" type="curve" smooth="yes"/>
      <point x="204" y="762"/>
      <point x="30" y="588"/>
      <point x="30" y="374" type="curve" smooth="yes"/>
      <point x="30" y="160"/>
      <point x="204" y="-14"/>
      <point x="418" y="-14" type="curve" smooth="yes"/>
    </contour>
    <contour>
      <point x="558" y="628"/>
      <point x="672" y="514"/>
      <point x="672" y="374" type="curve" smooth="yes"/>
      <point x="672" y="234"/>
      <point x="558" y="120"/>
      <point x="418" y="120" type="curve" smooth="yes"/>
      <point x="278" y="120"/>
      <point x="164" y="234"/>
      <point x="164" y="374" type="curve" smooth="yes"/>
      <point x="164" y="514"/>
      <point x="278" y="628"/>
      <point x="418" y="628" type="curve" smooth="yes"/>
    </contour>
    <contour>
      <point x="453" y="208"/>
      <point x="483" y="218"/>
      <point x="510" y="235" type="curve" smooth="yes"/>
      <point x="536" y="252"/>
      <point x="536" y="277"/>
      <point x="516" y="293" type="curve" smooth="yes"/>
      <point x="495" y="311"/>
      <point x="478" y="306"/>
      <point x="454" y="295" type="curve" smooth="yes"/>
      <point x="444" y="290"/>
      <point x="432" y="288"/>
      <point x="421" y="288" type="curve" smooth="yes"/>
      <point x="375" y="288"/>
      <point x="336" y="327"/>
      <point x="336" y="373" type="curve" smooth="yes"/>
      <point x="336" y="419"/>
      <point x="375" y="457"/>
      <point x="421" y="457" type="curve" smooth="yes"/>
      <point x="434" y="457"/>
      <point x="446" y="454"/>
      <point x="458" y="448" type="curve" smooth="yes"/>
      <point x="480" y="437"/>
      <point x="495" y="432"/>
      <point x="511" y="445" type="curve" smooth="yes"/>
      <point x="535" y="464"/>
      <point x="539" y="490"/>
      <point x="513" y="508" type="curve" smooth="yes"/>
      <point x="486" y="526"/>
      <point x="455" y="536"/>
      <point x="421" y="536" type="curve" smooth="yes"/>
      <point x="331" y="536"/>
      <point x="257" y="463"/>
      <point x="257" y="373" type="curve" smooth="yes"/>
      <point x="257" y="283"/>
      <point x="331" y="208"/>
      <point x="421" y="208" type="curve" smooth="yes"/>
    </contour>
  </outline>
</glyph>
<glyph name="registered" format="1">
  <advance width="833"/>
  <unicode hex="00AE"/>
  <outline>
    <contour>
      <point x="632" y="-14"/>
      <point x="806" y="160"/>
      <point x="806" y="374" type="curve" smooth="yes"/>
      <point x="806" y="588"/>
      <point x="632" y="762"/>
      <point x="418" y="762" type="curve" smooth="yes"/>
      <point x="204" y="762"/>
      <point x="30" y="588"/>
      <point x="30" y="374" type="curve" smooth="yes"/>
      <point x="30" y="160"/>
      <point x="204" y="-14"/>
      <point x="418" y="-14" type="curve" smooth="yes"/>
    </contour>
    <contour>
      <point x="558" y="628"/>
      <point x="672" y="514"/>
      <point x="672" y="374" type="curve" smooth="yes"/>
      <point x="672" y="234"/>
      <point x="558" y="120"/>
      <point x="418" y="120" type="curve" smooth="yes"/>
      <point x="278" y="120"/>
      <point x="164" y="234"/>
      <point x="164" y="374" type="curve" smooth="yes"/>
      <point x="164" y="514"/>
      <point x="278" y="628"/>
      <point x="418" y="628" type="curve" smooth="yes"/>
    </contour>
    <contour>
      <point x="533" y="458"/>
      <point x="518" y="484"/>
      <point x="505" y="495" type="curve" smooth="yes"/>
      <point x="489" y="509"/>
      <point x="468" y="517"/>
      <point x="444" y="517" type="curve" smooth="yes"/>
      <point x="355" y="517" type="line" smooth="yes"/>
      <point x="326" y="517"/>
      <point x="310" y="501"/>
      <point x="310" y="472" type="curve" smooth="yes"/>
      <point x="310" y="277" type="line" smooth="yes"/>
      <point x="310" y="248"/>
      <point x="319" y="232"/>
      <point x="337" y="232" type="curve" smooth="yes"/>
      <point x="366" y="232"/>
      <point x="382" y="248"/>
      <point x="382" y="277" type="curve" smooth="yes"/>
      <point x="382" y="334" type="line"/>
      <point x="417" y="334" type="line"/>
      <point x="442" y="268" type="line" smooth="yes"/>
      <point x="452" y="243"/>
      <point x="463" y="232"/>
      <point x="478" y="232" type="curve" smooth="yes"/>
      <point x="512" y="232"/>
      <point x="526" y="253"/>
      <point x="513" y="284" type="curve" smooth="yes"/>
      <point x="488" y="343" type="line"/>
      <point x="489" y="343"/>
      <point x="495" y="345"/>
      <point x="501" y="350" type="curve"/>
      <point x="522" y="366"/>
      <point x="533" y="395"/>
      <point x="533" y="423" type="curve" smooth="yes"/>
    </contour>
    <contour>
      <point x="463" y="408"/>
      <point x="451" y="399"/>
      <point x="437" y="399" type="curve" smooth="yes"/>
      <point x="382" y="399" type="line"/>
      <point x="382" y="447" type="line"/>
      <point x="440" y="447" type="line" smooth="yes"/>
      <point x="455" y="447"/>
      <point x="463" y="437"/>
      <point x="463" y="423" type="curve" smooth="yes"/>
    </contour>
  </outline>
</glyph>
<glyph name="quoteleft" format="1">
  <advance width="306"/>
  <unicode hex="2018"/>
  <outline>
    <contour>
      <point x="190" y="466"/>
      <point x="237" y="512"/>
      <point x="237" y="569" type="curve" smooth="yes"/>
      <point x="237" y="608"/>
      <point x="206" y="650"/>
      <point x="160" y="657" type="curve"/>
      <point x="167" y="665"/>
      <point x="178" y="678"/>
      <point x="195" y="698" type="curve" smooth="yes"/>
      <point x="209" y="713"/>
      <point x="223" y="725"/>
      <point x="210" y="741" type="curve" smooth="yes"/>
      <point x="209" y="743"/>
      <point x="208" y="744"/>
      <point x="206" y="746" type="curve" smooth="yes"/>
      <point x="185" y="765"/>
      <point x="172" y="771"/>
      <point x="165" y="766" type="curve" smooth="yes"/>
      <point x="119" y="727"/>
      <point x="69" y="666"/>
      <point x="58" y="648" type="curve"/>
      <point x="48" y="633"/>
      <point x="30" y="604"/>
      <point x="30" y="569" type="curve" smooth="yes"/>
      <point x="30" y="512"/>
      <point x="76" y="466"/>
      <point x="133" y="466" type="curve" smooth="yes"/>
    </contour>
  </outline>
</glyph>
<glyph name="quoteright" format="1">
  <advance width="306"/>
  <unicode hex="2019"/>
  <outline>
    <contour>
      <point x="77" y="774"/>
      <point x="30" y="728"/>
      <point x="30" y="671" type="curve" smooth="yes"/>
      <point x="30" y="632"/>
      <point x="61" y="590"/>
      <point x="107" y="583" type="curve"/>
      <point x="100" y="575"/>
      <point x="89" y="562"/>
      <point x="72" y="542" type="curve" smooth="yes"/>
      <point x="58" y="527"/>
      <point x="44" y="515"/>
      <point x="57" y="499" type="curve" smooth="yes"/>
      <point x="58" y="497"/>
      <point x="59" y="496"/>
      <point x="61" y="494" type="curve" smooth="yes"/>
      <point x="82" y="475"/>
      <point x="95" y="469"/>
      <point x="102" y="474" type="curve" smooth="yes"/>
      <point x="148" y="513"/>
      <point x="198" y="574"/>
      <point x="209" y="592" type="curve"/>
      <point x="219" y="607"/>
      <point x="237" y="636"/>
      <point x="237" y="671" type="curve" smooth="yes"/>
      <point x="237" y="728"/>
      <point x="191" y="774"/>
      <point x="134" y="774" type="curve" smooth="yes"/>
    </contour>
  </outline>
</glyph>
<glyph name="quotedblleft" format="1">
  <advance width="546"/>
  <unicode hex="201C"/>
  <outline>
    <contour>
      <point x="444" y="466"/>
      <point x="490" y="512"/>
      <point x="490" y="569" type="curve" smooth="yes"/>
      <point x="490" y="608"/>
      <point x="459" y="650"/>
      <point x="414" y="657" type="curve"/>
      <point x="420" y="665"/>
      <point x="431" y="679"/>
      <point x="449" y="698" type="curve" smooth="yes"/>
      <point x="463" y="714"/>
      <point x="476" y="725"/>
      <point x="463" y="741" type="curve" smooth="yes"/>
      <point x="462" y="743"/>
      <point x="461" y="744"/>
      <point x="459" y="746" type="curve" smooth="yes"/>
      <point x="438" y="765"/>
      <point x="425" y="771"/>
      <point x="418" y="766" type="curve" smooth="yes"/>
      <point x="372" y="727"/>
      <point x="322" y="666"/>
      <point x="311" y="648" type="curve"/>
      <point x="301" y="633"/>
      <point x="283" y="604"/>
      <point x="283" y="569" type="curve" smooth="yes"/>
      <point x="283" y="512"/>
      <point x="330" y="466"/>
      <point x="387" y="466" type="curve" smooth="yes"/>
    </contour>
    <contour>
      <point x="190" y="466"/>
      <point x="237" y="512"/>
      <point x="237" y="569" type="curve" smooth="yes"/>
      <point x="237" y="608"/>
      <point x="206" y="650"/>
      <point x="160" y="657" type="curve"/>
      <point x="167" y="665"/>
      <point x="178" y="678"/>
      <point x="195" y="698" type="curve" smooth="yes"/>
      <point x="209" y="713"/>
      <point x="223" y="725"/>
      <point x="210" y="741" type="curve" smooth="yes"/>
      <point x="209" y="743"/>
      <point x="208" y="744"/>
      <point x="206" y="746" type="curve" smooth="yes"/>
      <point x="185" y="765"/>
      <point x="172" y="771"/>
      <point x="165" y="766" type="curve" smooth="yes"/>
      <point x="119" y="727"/>
      <point x="69" y="666"/>
      <point x="58" y="648" type="curve"/>
      <point x="48" y="633"/>
      <point x="30" y="604"/>
      <point x="30" y="569" type="curve" smooth="yes"/>
      <point x="30" y="512"/>
      <point x="76" y="466"/>
      <point x="133" y="466" type="curve" smooth="yes"/>
    </contour>
  </outline>
</glyph>
<glyph name="quotedblright" format="1">
  <advance width="558"/>
  <unicode hex="201D"/>
  <outline>
    <contour>
      <point x="86" y="774"/>
      <point x="40" y="728"/>
      <point x="40" y="671" type="curve" smooth="yes"/>
      <point x="40" y="632"/>
      <point x="71" y="590"/>
      <point x="116" y="583" type="curve"/>
      <point x="110" y="575"/>
      <point x="99" y="561"/>
      <point x="81" y="542" type="curve" smooth="yes"/>
      <point x="67" y="526"/>
      <point x="54" y="515"/>
      <point x="67" y="499" type="curve" smooth="yes"/>
      <point x="68" y="497"/>
      <point x="69" y="496"/>
      <point x="71" y="494" type="curve" smooth="yes"/>
      <point x="92" y="475"/>
      <point x="105" y="469"/>
      <point x="112" y="474" type="curve" smooth="yes"/>
      <point x="158" y="513"/>
      <point x="208" y="574"/>
      <point x="219" y="592" type="curve"/>
      <point x="229" y="607"/>
      <point x="247" y="636"/>
      <point x="247" y="671" type="curve" smooth="yes"/>
      <point x="247" y="728"/>
      <point x="200" y="774"/>
      <point x="143" y="774" type="curve" smooth="yes"/>
    </contour>
    <contour>
      <point x="340" y="774"/>
      <point x="293" y="728"/>
      <point x="293" y="671" type="curve" smooth="yes"/>
      <point x="293" y="632"/>
      <point x="324" y="590"/>
      <point x="370" y="583" type="curve"/>
      <point x="363" y="575"/>
      <point x="352" y="562"/>
      <point x="335" y="542" type="curve" smooth="yes"/>
      <point x="321" y="527"/>
      <point x="307" y="515"/>
      <point x="320" y="499" type="curve" smooth="yes"/>
      <point x="321" y="497"/>
      <point x="322" y="496"/>
      <point x="324" y="494" type="curve" smooth="yes"/>
      <point x="345" y="475"/>
      <point x="358" y="469"/>
      <point x="365" y="474" type="curve" smooth="yes"/>
      <point x="411" y="513"/>
      <point x="461" y="574"/>
      <point x="472" y="592" type="curve"/>
      <point x="482" y="607"/>
      <point x="500" y="636"/>
      <point x="500" y="671" type="curve" smooth="yes"/>
      <point x="500" y="728"/>
      <point x="454" y="774"/>
      <point x="397" y="774" type="curve" smooth="yes"/>
    </contour>
  </outline>
</glyph>
<glyph name="bullet" format="1">
  <advance width="466"/>
  <unicode hex="2022"/>
  <outline>
    <contour>
      <point x="265" y="212"/>
      <point x="329" y="275"/>
      <point x="329" y="355" type="curve" smooth="yes"/>
      <point x="329" y="435"/>
      <point x="265" y="499"/>
      <point x="185" y="499" type="curve" smooth="yes"/>
      <point x="105" y="499"/>
      <point x="41" y="435"/>
      <point x="41" y="355" type="curve" smooth="yes"/>
      <point x="41" y="275"/>
      <point x="105" y="212"/>
      <point x="185" y="212" type="curve" smooth="yes"/>
    </contour>
  </outline>
</glyph>
<glyph name="trademark" format="1">
  <advance width="604"/>
  <unicode hex="2122"/>
  <outline>
    <contour>
      <point x="158" y="480"/>
      <point x="170" y="496"/>
      <point x="170" y="525" type="curve" smooth="yes"/>
      <point x="170" y="674" type="line"/>
      <point x="195" y="674" type="line" smooth="yes"/>
      <point x="224" y="674"/>
      <point x="240" y="682"/>
      <point x="240" y="705" type="curve" smooth="yes"/>
      <point x="240" y="734"/>
      <point x="224" y="740"/>
      <point x="195" y="740" type="curve" smooth="yes"/>
      <point x="79" y="740" type="line" smooth="yes"/>
      <point x="50" y="740"/>
      <point x="34" y="730"/>
      <point x="34" y="709" type="curve" smooth="yes"/>
      <point x="34" y="685"/>
      <point x="50" y="674"/>
      <point x="79" y="674" type="curve" smooth="yes"/>
      <point x="104" y="674" type="line"/>
      <point x="104" y="525" type="line" smooth="yes"/>
      <point x="104" y="496"/>
      <point x="116" y="480"/>
      <point x="137" y="480" type="curve" smooth="yes"/>
    </contour>
    <contour>
      <point x="282" y="525" type="line" smooth="yes"/>
      <point x="282" y="496"/>
      <point x="290" y="480"/>
      <point x="314" y="480" type="curve" smooth="yes"/>
      <point x="336" y="480"/>
      <point x="349" y="496"/>
      <point x="349" y="525" type="curve" smooth="yes"/>
      <point x="349" y="586" type="line"/>
      <point x="379" y="515" type="line" smooth="yes"/>
      <point x="388" y="491"/>
      <point x="397" y="480"/>
      <point x="414" y="480" type="curve" smooth="yes"/>
      <point x="433" y="480"/>
      <point x="439" y="491"/>
      <point x="449" y="515" type="curve" smooth="yes"/>
      <point x="479" y="587" type="line"/>
      <point x="479" y="525" type="line" smooth="yes"/>
      <point x="479" y="496"/>
      <point x="490" y="480"/>
      <point x="513" y="480" type="curve" smooth="yes"/>
      <point x="542" y="480"/>
      <point x="546" y="496"/>
      <point x="546" y="525" type="curve" smooth="yes"/>
      <point x="546" y="695" type="line" smooth="yes"/>
      <point x="546" y="724"/>
      <point x="541" y="740"/>
      <point x="517" y="740" type="curve" smooth="yes"/>
      <point x="492" y="740"/>
      <point x="482" y="730"/>
      <point x="471" y="706" type="curve" smooth="yes"/>
      <point x="414" y="582" type="line"/>
      <point x="357" y="706" type="line" smooth="yes"/>
      <point x="346" y="730"/>
      <point x="337" y="740"/>
      <point x="317" y="740" type="curve" smooth="yes"/>
      <point x="288" y="740"/>
      <point x="282" y="724"/>
      <point x="282" y="695" type="curve" smooth="yes"/>
    </contour>
  </outline>
</glyph>
